<svg width="105" height="38" viewBox="0 0 105 38" fill="none" xmlns="http://www.w3.org/2000/svg">
<path d="M30.494 4.4H33.41V14.624H39.728V17H30.494V4.4ZM50.575 12.194C50.575 12.23 50.557 12.482 50.521 12.95H43.195C43.327 13.55 43.639 14.024 44.131 14.372C44.623 14.72 45.235 14.894 45.967 14.894C46.471 14.894 46.915 14.822 47.299 14.678C47.695 14.522 48.061 14.282 48.397 13.958L49.891 15.578C48.979 16.622 47.647 17.144 45.895 17.144C44.803 17.144 43.837 16.934 42.997 16.514C42.157 16.082 41.509 15.488 41.053 14.732C40.597 13.976 40.369 13.118 40.369 12.158C40.369 11.21 40.591 10.358 41.035 9.602C41.491 8.834 42.109 8.24 42.889 7.82C43.681 7.388 44.563 7.172 45.535 7.172C46.483 7.172 47.341 7.376 48.109 7.784C48.877 8.192 49.477 8.78 49.909 9.548C50.353 10.304 50.575 11.186 50.575 12.194ZM45.553 9.296C44.917 9.296 44.383 9.476 43.951 9.836C43.519 10.196 43.255 10.688 43.159 11.312H47.929C47.833 10.7 47.569 10.214 47.137 9.854C46.705 9.482 46.177 9.296 45.553 9.296ZM57.0524 17.144C56.0324 17.144 55.1144 16.934 54.2984 16.514C53.4944 16.082 52.8644 15.488 52.4084 14.732C51.9524 13.976 51.7244 13.118 51.7244 12.158C51.7244 11.198 51.9524 10.34 52.4084 9.584C52.8644 8.828 53.4944 8.24 54.2984 7.82C55.1144 7.388 56.0324 7.172 57.0524 7.172C58.0724 7.172 58.9844 7.388 59.7884 7.82C60.5924 8.24 61.2224 8.828 61.6784 9.584C62.1344 10.34 62.3624 11.198 62.3624 12.158C62.3624 13.118 62.1344 13.976 61.6784 14.732C61.2224 15.488 60.5924 16.082 59.7884 16.514C58.9844 16.934 58.0724 17.144 57.0524 17.144ZM57.0524 14.84C57.7724 14.84 58.3604 14.6 58.8164 14.12C59.2844 13.628 59.5184 12.974 59.5184 12.158C59.5184 11.342 59.2844 10.694 58.8164 10.214C58.3604 9.722 57.7724 9.476 57.0524 9.476C56.3324 9.476 55.7384 9.722 55.2704 10.214C54.8024 10.694 54.5684 11.342 54.5684 12.158C54.5684 12.974 54.8024 13.628 55.2704 14.12C55.7384 14.6 56.3324 14.84 57.0524 14.84ZM68.3974 13.202L67.0474 14.534V17H64.2394V3.644H67.0474V11.204L71.1514 7.316H74.4994L70.4674 11.42L74.8594 17H71.4574L68.3974 13.202ZM79.8524 7.172C81.3524 7.172 82.5044 7.532 83.3084 8.252C84.1124 8.96 84.5144 10.034 84.5144 11.474V17H81.8864V15.794C81.3584 16.694 80.3744 17.144 78.9344 17.144C78.1904 17.144 77.5424 17.018 76.9904 16.766C76.4504 16.514 76.0364 16.166 75.7484 15.722C75.4604 15.278 75.3164 14.774 75.3164 14.21C75.3164 13.31 75.6524 12.602 76.3244 12.086C77.0084 11.57 78.0584 11.312 79.4744 11.312H81.7064C81.7064 10.7 81.5204 10.232 81.1484 9.908C80.7764 9.572 80.2184 9.404 79.4744 9.404C78.9584 9.404 78.4484 9.488 77.9444 9.656C77.4524 9.812 77.0324 10.028 76.6844 10.304L75.6764 8.342C76.2044 7.97 76.8344 7.682 77.5664 7.478C78.3104 7.274 79.0724 7.172 79.8524 7.172ZM79.6364 15.254C80.1164 15.254 80.5424 15.146 80.9144 14.93C81.2864 14.702 81.5504 14.372 81.7064 13.94V12.95H79.7804C78.6284 12.95 78.0524 13.328 78.0524 14.084C78.0524 14.444 78.1904 14.732 78.4664 14.948C78.7544 15.152 79.1444 15.254 79.6364 15.254Z" fill="black"/>
<path d="M40.25 30.66V33H30.494V20.4H40.016V22.74H33.392V25.476H39.242V27.744H33.392V30.66H40.25ZM45.5599 33.144C44.7559 33.144 43.9699 33.048 43.2019 32.856C42.4339 32.652 41.8219 32.4 41.3659 32.1L42.3019 30.084C42.7339 30.36 43.2559 30.588 43.8679 30.768C44.4799 30.936 45.0799 31.02 45.6679 31.02C46.8559 31.02 47.4499 30.726 47.4499 30.138C47.4499 29.862 47.2879 29.664 46.9639 29.544C46.6399 29.424 46.1419 29.322 45.4699 29.238C44.6779 29.118 44.0239 28.98 43.5079 28.824C42.9919 28.668 42.5419 28.392 42.1579 27.996C41.7859 27.6 41.5999 27.036 41.5999 26.304C41.5999 25.692 41.7739 25.152 42.1219 24.684C42.4819 24.204 42.9979 23.832 43.6699 23.568C44.3539 23.304 45.1579 23.172 46.0819 23.172C46.7659 23.172 47.4439 23.25 48.1159 23.406C48.7999 23.55 49.3639 23.754 49.8079 24.018L48.8719 26.016C48.0199 25.536 47.0899 25.296 46.0819 25.296C45.4819 25.296 45.0319 25.38 44.7319 25.548C44.4319 25.716 44.2819 25.932 44.2819 26.196C44.2819 26.496 44.4439 26.706 44.7679 26.826C45.0919 26.946 45.6079 27.06 46.3159 27.168C47.1079 27.3 47.7559 27.444 48.2599 27.6C48.7639 27.744 49.2019 28.014 49.5739 28.41C49.9459 28.806 50.1319 29.358 50.1319 30.066C50.1319 30.666 49.9519 31.2 49.5919 31.668C49.2319 32.136 48.7039 32.502 48.0079 32.766C47.3239 33.018 46.5079 33.144 45.5599 33.144ZM58.1104 32.532C57.8344 32.736 57.4924 32.892 57.0844 33C56.6884 33.096 56.2684 33.144 55.8244 33.144C54.6724 33.144 53.7784 32.85 53.1424 32.262C52.5184 31.674 52.2064 30.81 52.2064 29.67V25.692H50.7124V23.532H52.2064V21.174H55.0144V23.532H57.4264V25.692H55.0144V29.634C55.0144 30.042 55.1164 30.36 55.3204 30.588C55.5364 30.804 55.8364 30.912 56.2204 30.912C56.6644 30.912 57.0424 30.792 57.3544 30.552L58.1104 32.532ZM68.8738 28.194C68.8738 28.23 68.8558 28.482 68.8198 28.95H61.4938C61.6258 29.55 61.9378 30.024 62.4298 30.372C62.9218 30.72 63.5338 30.894 64.2658 30.894C64.7698 30.894 65.2138 30.822 65.5978 30.678C65.9938 30.522 66.3598 30.282 66.6958 29.958L68.1898 31.578C67.2778 32.622 65.9458 33.144 64.1938 33.144C63.1018 33.144 62.1358 32.934 61.2958 32.514C60.4558 32.082 59.8078 31.488 59.3518 30.732C58.8958 29.976 58.6678 29.118 58.6678 28.158C58.6678 27.21 58.8898 26.358 59.3338 25.602C59.7898 24.834 60.4078 24.24 61.1878 23.82C61.9798 23.388 62.8618 23.172 63.8338 23.172C64.7818 23.172 65.6398 23.376 66.4078 23.784C67.1758 24.192 67.7758 24.78 68.2078 25.548C68.6518 26.304 68.8738 27.186 68.8738 28.194ZM63.8518 25.296C63.2158 25.296 62.6818 25.476 62.2498 25.836C61.8178 26.196 61.5538 26.688 61.4578 27.312H66.2278C66.1318 26.7 65.8678 26.214 65.4358 25.854C65.0038 25.482 64.4758 25.296 63.8518 25.296ZM76.9893 32.532C76.7133 32.736 76.3713 32.892 75.9633 33C75.5673 33.096 75.1473 33.144 74.7033 33.144C73.5513 33.144 72.6573 32.85 72.0213 32.262C71.3973 31.674 71.0853 30.81 71.0853 29.67V25.692H69.5913V23.532H71.0853V21.174H73.8933V23.532H76.3053V25.692H73.8933V29.634C73.8933 30.042 73.9953 30.36 74.1993 30.588C74.4153 30.804 74.7153 30.912 75.0993 30.912C75.5433 30.912 75.9213 30.792 76.2333 30.552L76.9893 32.532ZM78.5655 23.316H81.3735V33H78.5655V23.316ZM79.9695 21.966C79.4535 21.966 79.0335 21.816 78.7095 21.516C78.3855 21.216 78.2235 20.844 78.2235 20.4C78.2235 19.956 78.3855 19.584 78.7095 19.284C79.0335 18.984 79.4535 18.834 79.9695 18.834C80.4855 18.834 80.9055 18.978 81.2295 19.266C81.5535 19.554 81.7155 19.914 81.7155 20.346C81.7155 20.814 81.5535 21.204 81.2295 21.516C80.9055 21.816 80.4855 21.966 79.9695 21.966ZM88.6596 33.144C87.6276 33.144 86.6976 32.934 85.8696 32.514C85.0536 32.082 84.4116 31.488 83.9436 30.732C83.4876 29.976 83.2596 29.118 83.2596 28.158C83.2596 27.198 83.4876 26.34 83.9436 25.584C84.4116 24.828 85.0536 24.24 85.8696 23.82C86.6976 23.388 87.6276 23.172 88.6596 23.172C89.6796 23.172 90.5676 23.388 91.3236 23.82C92.0916 24.24 92.6496 24.846 92.9976 25.638L90.8196 26.808C90.3156 25.92 89.5896 25.476 88.6416 25.476C87.9096 25.476 87.3036 25.716 86.8236 26.196C86.3436 26.676 86.1036 27.33 86.1036 28.158C86.1036 28.986 86.3436 29.64 86.8236 30.12C87.3036 30.6 87.9096 30.84 88.6416 30.84C89.6016 30.84 90.3276 30.396 90.8196 29.508L92.9976 30.696C92.6496 31.464 92.0916 32.064 91.3236 32.496C90.5676 32.928 89.6796 33.144 88.6596 33.144ZM98.5204 23.172C100.02 23.172 101.172 23.532 101.976 24.252C102.78 24.96 103.182 26.034 103.182 27.474V33H100.554V31.794C100.026 32.694 99.0424 33.144 97.6024 33.144C96.8584 33.144 96.2104 33.018 95.6584 32.766C95.1184 32.514 94.7044 32.166 94.4164 31.722C94.1284 31.278 93.9844 30.774 93.9844 30.21C93.9844 29.31 94.3204 28.602 94.9924 28.086C95.6764 27.57 96.7264 27.312 98.1424 27.312H100.374C100.374 26.7 100.188 26.232 99.8164 25.908C99.4444 25.572 98.8864 25.404 98.1424 25.404C97.6264 25.404 97.1164 25.488 96.6124 25.656C96.1204 25.812 95.7004 26.028 95.3524 26.304L94.3444 24.342C94.8724 23.97 95.5024 23.682 96.2344 23.478C96.9784 23.274 97.7404 23.172 98.5204 23.172ZM98.3044 31.254C98.7844 31.254 99.2104 31.146 99.5824 30.93C99.9544 30.702 100.218 30.372 100.374 29.94V28.95H98.4484C97.2964 28.95 96.7204 29.328 96.7204 30.084C96.7204 30.444 96.8584 30.732 97.1344 30.948C97.4224 31.152 97.8124 31.254 98.3044 31.254Z" fill="black"/>
<rect x="8" y="4" width="11" height="5" fill="#1A73E8"/>
<rect x="8" y="12" width="11" height="5" fill="#1A73E8"/>
<rect x="21" y="4" width="21" height="5" transform="rotate(90 21 4)" fill="#1A73E8"/>
<rect x="5" y="4" width="25" height="5" transform="rotate(90 5 4)" fill="#1A73E8"/>
<rect x="21" y="33" width="21" height="5" transform="rotate(-180 21 33)" fill="#1A73E8"/>
<rect x="8" y="20" width="11" height="5" fill="#1A73E8"/>
</svg>
