<svg width="304" height="196" viewBox="0 0 304 196" fill="none" xmlns="http://www.w3.org/2000/svg">
<mask id="mask0_832_674" style="mask-type:luminance" maskUnits="userSpaceOnUse" x="34" y="0" width="270" height="168">
<path d="M304 0H34V168H304V0Z" fill="white"/>
</mask>
<g mask="url(#mask0_832_674)">
<path d="M297.407 0V131.381C297.407 134.891 294.565 137.741 291.066 137.741H121.583C118.084 137.741 115.243 134.891 115.243 131.381V0" stroke="white" stroke-width="1.5" stroke-miterlimit="10"/>
<path d="M231.013 87.7237C222.421 86.0739 219.992 111.395 224.111 119.826C212.786 102.083 198.466 74.9302 187.141 57.187C174.44 37.2906 159.27 12.5144 136.378 6.04073C115.753 0.210227 104.995 19.8829 104.671 39.9891C104.358 59.2284 106.129 78.6354 109.377 97.5251C112.919 118.121 117.524 141.583 127.756 159.563C116.876 140.45 99.4696 133.99 80.0185 135.766C70.9609 136.591 61.5389 139.933 55.821 147.679C46.6723 160.067 50.103 182.564 53.9993 197.916H79.5226C124.77 197.916 304 198 304 198C304 198 258.904 93.0789 231.013 87.7237Z" fill="#EF9748"/>
<path d="M252 90.2363C261.976 98.8745 271.241 108.367 279.671 118.587" stroke="#EF9748" stroke-miterlimit="10"/>
<path d="M252.225 80C259.185 85.2841 265.557 91.3672 271.195 98.099" stroke="#EF9748" stroke-miterlimit="10"/>
<path d="M130.866 87.1855C115.789 91.9835 102.531 114.594 98.8101 121.116C95.0888 127.639 86.1191 137.813 86.1191 137.813L118.226 163.811C118.226 163.811 136.903 142.702 146.055 130.185" fill="#1A73E8"/>
<path d="M220.067 130.469H131.079V154.814H220.067V130.469Z" fill="#1A73E8"/>
<path d="M129.066 90.208C130.957 95.5639 130.098 103.446 130.118 109.136C130.138 114.208 131.918 117.028 132.656 122.039C133.546 128.034 136.944 132.315 140.514 137.741H217.357L213.312 95.006L202.856 79.8411L180.771 73.9375L130.907 87.0939" fill="#1A73E8"/>
<path d="M153.195 79.8408C152.426 82.5593 151.87 85.6024 152.335 88.4123C152.881 91.709 154.964 93.7783 157.937 95.0057" stroke="white" stroke-miterlimit="10"/>
<path d="M179.729 90.9581C192.744 86.2413 200.278 70.5997 195.272 59.1475" stroke="white" stroke-miterlimit="10"/>
<path d="M229.168 134.526C229.168 134.526 194.341 136.555 188.719 138.584C183.096 140.612 186.99 161.934 186.99 161.934C186.99 161.934 244.458 164.247 261.588 151.415C266.968 147.388 266.372 139.233 264.167 132.812C263.065 129.596 260.982 126.807 258.848 124.159C252.973 116.886 246.4 110.171 239.24 104.166L213.524 127.649L229.441 143.118" fill="#FFCAA2"/>
<path d="M196.395 78.1475C201.865 78.6749 207.346 79.1923 212.554 81.1601C219.137 83.6555 224.861 88.3419 230.251 93.1297C235.883 98.1306 241.627 104.947 247.098 110.171L219.016 134.82L199.135 115.385" fill="#1A73E8"/>
<path d="M223.89 135.429C223.89 135.429 230.584 136.311 235.256 138.452" stroke="black" stroke-miterlimit="10"/>
<path d="M210.845 126.837L240.13 103.05" stroke="white" stroke-miterlimit="10"/>
<path d="M129.066 104.166C129.066 104.166 131.008 113.011 131.544 116.805" stroke="white" stroke-miterlimit="10"/>
<path d="M198.134 115.314C204.221 120.031 219.016 134.82 219.016 134.82" stroke="white" stroke-miterlimit="10"/>
<path d="M166.897 48.7305L179.982 54.0559L179.214 62.8099L185.807 75.6011C185.807 75.6011 182.591 87.662 168.141 90.6645C155.945 93.2005 156.218 85.3087 156.218 85.3087L150.414 68.4904" fill="#FFCAA2"/>
<path d="M140.109 67.2126C138.511 60.5583 137.409 56.5516 137.176 51.1855C136.974 46.6412 137.227 39.7536 139.917 36.0106C143.385 31.1923 150.221 30.675 155.924 29.6606C165.288 27.997 172.357 36.1424 175.664 43.9734C178.202 49.9886 176.533 54.6445 174.956 61.1162C172.893 69.5761 162.771 81.6268 154.205 82.063C147.804 82.3876 141.797 74.2625 140.099 67.2126H140.109Z" fill="#FFCAA2"/>
<path d="M138.157 45.2616C140.908 53.9954 146.257 44.3893 146.257 44.3893C148.29 54.675 152.861 44.0647 152.861 44.0647C155.419 53.0114 160.637 43.3039 160.637 43.3039C160.86 44.3893 165.107 51.4797 167.493 50.3335C169.88 49.1873 171.538 55.4053 174.279 56.5617C177.019 57.7181 174.167 61.8872 174.167 61.8872C176.807 62.2828 178.607 74.6784 179.729 78.1475C180.852 81.6167 184.674 77.7215 184.674 77.7215C184.442 80.866 190.742 77.7215 190.742 77.7215C191.753 84.8221 198.832 77.7215 201.36 67.0909C203.888 56.4603 191.338 40.0376 183.663 31.0605C177.596 23.9599 174.36 21.7283 161.416 20.9168C145.236 19.9024 136.135 31.0605 136.135 31.0605C136.135 31.0605 119.662 47.1281 138.157 58.4485" fill="black"/>
<path d="M165.501 53.8326C164.935 51.033 168.201 48 170.861 48.3347C177.272 49.1361 177.666 60.2536 172.378 62.5156C170.881 63.1547 168.505 63.0431 167.554 61.3998" fill="#FFCAA2"/>
<path d="M172.357 52.9802L168.292 58.7723" stroke="black" stroke-miterlimit="10"/>
<path d="M167.352 49.7954C166.28 50.8199 165.531 52.2096 165.228 53.7007" stroke="black" stroke-miterlimit="10"/>
<path d="M176.23 56.3582C175.978 58.8129 174.956 61.572 172.57 62.5458C170.922 63.2153 168.788 62.9008 167.686 61.2778" stroke="black" stroke-miterlimit="10"/>
<path d="M163.135 78.8364C163.135 78.8364 168.191 75.5701 171.407 68.9463" stroke="black" stroke-miterlimit="10"/>
<path d="M145.236 60.4258C145.236 62.3429 145.236 64.321 144.488 66.0758C144.306 66.4917 144.083 66.9076 144.003 67.3539C143.881 68.0031 144.073 68.6929 144.508 69.1899C144.943 69.687 145.61 69.9609 146.258 69.9203" stroke="black" stroke-miterlimit="10"/>
<path d="M149.19 72.7003C150.424 72.9133 151.819 72.467 152.507 71.3613C153.366 69.9716 152.476 68.3588 151.799 67.0908" stroke="black" stroke-miterlimit="10"/>
<path d="M149.534 53.822C150.333 53.1018 151.263 52.5135 152.294 52.199C153.326 51.8846 154.458 51.8744 155.46 52.27C156.724 52.7772 157.654 53.8626 158.534 54.9074" stroke="black" stroke-miterlimit="10"/>
<path d="M137.409 56.2269C137.915 55.101 139.108 54.3605 140.332 54.2692C141.555 54.1779 142.789 54.6952 143.679 55.5473" stroke="black" stroke-miterlimit="10"/>
<path d="M154.085 58.1948C154.155 59.1483 153.66 59.9598 152.982 60.0105C152.295 60.0613 151.688 59.3309 151.617 58.3875C151.546 57.434 152.042 56.6225 152.719 56.5718C153.407 56.5211 154.014 57.2515 154.085 58.1948Z" fill="black"/>
<path d="M142.384 60.6392C142.455 61.5927 141.96 62.4042 141.282 62.4549C140.594 62.5056 139.988 61.7752 139.917 60.8319C139.846 59.8784 140.342 59.0669 141.019 59.0162C141.707 58.9654 142.314 59.6958 142.384 60.6392Z" fill="black"/>
<path d="M157.371 168H60.292L81.5279 145.684H178.607L157.371 168Z" fill="#1A73E8"/>
<path d="M188.982 138.796C188.982 138.796 170.183 136.92 167.21 137.336C164.541 137.701 161.527 138.776 158.999 139.75C152.032 142.428 147.319 149.609 145.63 153.971C145.438 154.468 145.459 155.026 145.62 155.513C145.974 156.588 146.702 156.69 147.825 156.03C147.4 156.964 146.975 157.887 146.551 158.82C146.379 159.205 146.197 159.601 146.217 160.007C146.257 160.778 147.036 161.325 147.875 161.457C148.715 161.589 149.615 161.396 150.474 161.214C149.979 162.228 149.615 163.577 150.575 164.135C151.536 164.703 153.73 164.419 154.661 163.658C153.913 164.44 154.55 165.657 155.571 165.951C156.592 166.245 157.755 165.9 158.827 165.565C161.537 164.703 164.308 163.77 167.099 163.77C168.96 163.77 170.739 164.206 172.56 164.419C178.496 165.139 184.715 163.648 190.57 161.68" fill="#FFCAA2"/>
<path d="M171.528 156.67C170.355 156.771 169.182 156.863 167.999 156.964C167.049 157.045 166.088 157.126 165.147 157.289C160.931 158.019 157.007 160.474 154.54 163.943" stroke="black" stroke-miterlimit="10"/>
<path d="M167.928 149.366C163.176 150.888 157.856 153.393 154.985 155.807C153.124 157.369 151.658 159.378 150.495 161.498" stroke="black" stroke-miterlimit="10"/>
<path d="M166.077 142.235C166.077 142.235 162.619 143.442 160.768 144.305C154.883 147.043 149.837 150.847 147.359 156.284" stroke="black" stroke-miterlimit="10"/>
<path d="M157.371 168H57.2584L34 109.167H134.112L157.371 168Z" fill="#1A73E8"/>
<path d="M93.5748 144.716C96.5306 144.016 98.2051 140.403 97.3151 136.646C96.425 132.89 93.3073 130.412 90.3516 131.113C87.3959 131.813 85.7213 135.426 86.6114 139.183C87.5015 142.939 90.6191 145.416 93.5748 144.716Z" fill="white"/>
<path d="M97.9682 132.244C99.336 131.92 100.111 130.248 99.6991 128.51C99.2872 126.772 97.8444 125.625 96.4766 125.949C95.1088 126.273 94.3339 127.945 94.7458 129.684C95.1577 131.422 96.6004 132.569 97.9682 132.244Z" fill="white"/>
<path d="M264.817 32.9897L246.293 7L231.073 45.0778L264.817 32.9897Z" fill="#1A73E8"/>
<path d="M220.792 25.3962C220.792 27.264 219.264 28.7923 217.396 28.7923C215.528 28.7923 214 27.264 214 25.3962C214 23.5283 215.528 22 217.396 22C219.349 22 220.792 23.5283 220.792 25.3962Z" fill="#1A73E8"/>
<path d="M106.5 109.5H133.5L149 147.5" stroke="white"/>
</g>
<path d="M15.6795 148.081L29.3498 132.629L6 133.393L15.6795 148.081Z" stroke="#FF9740" stroke-width="1.5" stroke-miterlimit="10"/>
<path d="M24.6668 68.8554L3.25644 81.0571C1.45768 82.0823 0.830732 84.3707 1.85556 86.1689L9.42461 99.4503C10.4495 101.249 12.7379 101.876 14.5366 100.851L35.947 88.6487C37.7452 87.6239 38.3727 85.3352 37.3478 83.5368L29.7788 70.2555C28.7539 68.4572 26.4651 67.8305 24.6668 68.8554ZM36.2929 85.3003L36.0914 86.3876L23.3734 84.2501L22.758 86.2954C22.2831 87.7781 20.7518 88.6508 19.2341 88.3037L17.1608 87.7907L12.5177 99.8223L11.4794 99.4415L15.3865 87.3514L2.78925 84.3169L2.90802 83.3979L20.0542 85.647L26.8582 69.7487L27.7091 70.1151L23.8998 82.4997L36.2929 85.3003Z" fill="#1A73E8"/>
<path d="M46.2928 81.5685C43.4458 76.8361 37.3014 75.3076 32.5689 78.1546C27.8364 81.0016 26.308 87.146 29.155 91.8785C32.002 96.611 38.1464 98.1394 42.8789 95.2924C47.6113 92.4454 49.1398 86.301 46.2928 81.5685Z" fill="#FF9740"/>
<path d="M36.2758 85.5912C37.4594 84.8792 38.4747 84.5843 39.3216 84.7065C40.1636 84.8208 40.8228 85.2738 41.2992 86.0656C41.6023 86.5694 41.7526 87.0999 41.75 87.6569C41.7475 88.2139 41.5704 88.7615 41.2189 89.2998C40.8674 89.838 40.3277 90.326 39.6 90.7639C39.0001 91.1247 38.3698 91.3896 37.7089 91.5584C37.0432 91.7192 36.427 91.7632 35.8603 91.6902L35.7912 90.0816C36.2571 90.1499 36.7517 90.1301 37.2749 90.0223C37.8014 89.9016 38.2966 89.7018 38.7605 89.4227C39.3123 89.0907 39.6768 88.7189 39.854 88.3074C40.0344 87.883 40.0043 87.4708 39.7637 87.071C39.5039 86.6391 39.1371 86.4186 38.6633 86.4096C38.1927 86.3877 37.5455 86.6246 36.7217 87.1201L34.6943 88.3398L32.3765 83.5093L37.3071 80.5432L38.0937 81.8508L34.4828 84.0231L35.472 86.0748L36.2758 85.5912Z" fill="white"/>
<path d="M83.4054 89.1785C82.7345 88.9297 82.235 87.8412 82.4838 87.1702L85.2007 79.8453C86.6986 75.8067 84.6312 71.3015 80.5926 69.8036C76.5541 68.3057 72.0488 70.373 70.5509 74.4116L67.8341 81.7365C67.5905 82.3932 66.4824 82.9017 65.8257 82.6581C65.0159 82.3578 64.1177 82.77 63.8174 83.5797C63.517 84.3895 63.9292 85.2877 64.739 85.5881L82.3187 92.1085C83.1285 92.4088 84.0267 91.9967 84.327 91.1869C84.6274 90.3771 84.2152 89.4789 83.4054 89.1785Z" fill="#1A73E8"/>
<path d="M71.7466 93.6534C73.3647 94.2536 75.1632 93.4283 75.7633 91.8102L69.9034 89.6367C69.3033 91.2548 70.1286 93.0533 71.7466 93.6534Z" fill="#1A73E8"/>
<path d="M86 83C88.7614 83 91 80.7614 91 78C91 75.2386 88.7614 73 86 73C83.2386 73 81 75.2386 81 78C81 80.7614 83.2386 83 86 83Z" fill="#FF9740"/>
<path d="M259.5 169C259.5 173.124 256.124 176.5 252 176.5C247.876 176.5 244.5 173.124 244.5 169C244.5 164.876 247.876 161.5 252 161.5C256.316 161.5 259.5 164.868 259.5 169Z" stroke="black"/>
<path d="M228 184C228 190.6 222.6 196 216 196C209.4 196 204 190.6 204 184C204 177.4 209.4 172 216 172C222.9 172 228 177.4 228 184Z" fill="#EF9748"/>
</svg>
