<svg width="20" height="20" viewBox="0 0 20 20" fill="none" xmlns="http://www.w3.org/2000/svg">
<path d="M16.6668 10.4167V5.66675C16.6668 4.26662 16.6668 3.56655 16.3943 3.03177C16.1547 2.56137 15.7722 2.17892 15.3018 1.93923C14.767 1.66675 14.067 1.66675 12.6668 1.66675H7.3335C5.93336 1.66675 5.2333 1.66675 4.69852 1.93923C4.22811 2.17892 3.84566 2.56137 3.60598 3.03177C3.3335 3.56655 3.3335 4.26662 3.3335 5.66675V14.3334C3.3335 15.7335 3.3335 16.4336 3.60598 16.9684C3.84566 17.4388 4.22811 17.8212 4.69852 18.0609C5.2333 18.3334 5.93336 18.3334 7.3335 18.3334H10.0002M11.6668 9.16675H6.66683M8.3335 12.5001H6.66683M13.3335 5.83341H6.66683M12.0835 15.8334L13.7502 17.5001L17.5002 13.7501" stroke="#6B8199" stroke-width="1.5" stroke-linecap="round" stroke-linejoin="round"/>
</svg>
