<svg width="303" height="237" viewBox="0 0 303 237" fill="none" xmlns="http://www.w3.org/2000/svg">
<path d="M167.53 40.62C168.31 37.23 173.45 35.52 176.24 37.23C182.96 41.34 177.81 53.84 170.81 53.68C168.83 53.64 166.24 52.32 166.02 50.01" fill="#FFCAA2"/>
<path d="M175.56 43.1396L168.15 47.4897" stroke="black" stroke-miterlimit="10"/>
<path d="M131.87 40.62C131.09 37.23 125.95 35.52 123.16 37.23C116.44 41.34 121.59 53.84 128.59 53.68C130.57 53.64 133.16 52.32 133.38 50.01" fill="#FFCAA2"/>
<path d="M123.83 43.1394L131.24 47.4894" stroke="black" stroke-miterlimit="10"/>
<path d="M177.5 34.9998C177.1 38.1998 172 42.6314 170 44.4647V34.4643C172.333 33.131 177.9 31.7998 177.5 34.9998Z" fill="black" stroke="black"/>
<path d="M124.96 38.5597C124.38 37.6297 122.49 34.2897 122.14 33.2497C120.37 27.9997 117.09 14.4097 125.53 14.1097C135.64 13.7497 134.64 14.7497 134.64 14.7497C134.64 14.7497 151.39 -8.68029 168.02 3.53971C184.65 15.7597 182.42 26.1797 178.14 35.2497C170.14 52.2497 129.14 45.2497 129.14 45.2497L124.96 38.5597Z" fill="black"/>
<path d="M154.91 17.9302C151.14 16.8402 147.05 16.8002 143.32 17.9302C134.34 20.6502 130.03 27.3802 129.5 36.4002C129.04 44.2402 129.08 55.4702 131.19 63.1002C133.38 70.9802 137.83 76.8302 146.86 77.7602C163.59 79.4802 170.69 66.0002 170.4 39.2902C170.33 33.1302 169.92 26.4802 165.13 22.4202C163 20.6102 157.61 18.7002 154.91 17.9302Z" fill="#FFCAA2"/>
<path d="M141.98 43.65C141.98 44.97 141.21 46.05 140.26 46.05C139.31 46.05 138.54 44.98 138.54 43.65C138.54 42.32 139.31 41.25 140.26 41.25C141.21 41.25 141.98 42.32 141.98 43.65Z" fill="black"/>
<path d="M161.98 43.65C161.98 44.97 161.21 46.05 160.26 46.05C159.31 46.05 158.54 44.98 158.54 43.65C158.54 42.32 159.31 41.25 160.26 41.25C161.21 41.25 161.98 42.32 161.98 43.65Z" fill="black"/>
<path d="M140.39 50.7402C144.394 50.7402 147.64 47.4943 147.64 43.4902C147.64 39.4862 144.394 36.2402 140.39 36.2402C136.386 36.2402 133.14 39.4862 133.14 43.4902C133.14 47.4943 136.386 50.7402 140.39 50.7402Z" stroke="black" stroke-miterlimit="10"/>
<path d="M160.39 50.7402C164.394 50.7402 167.64 47.4943 167.64 43.4902C167.64 39.4862 164.394 36.2402 160.39 36.2402C156.386 36.2402 153.14 39.4862 153.14 43.4902C153.14 47.4943 156.386 50.7402 160.39 50.7402Z" stroke="black" stroke-miterlimit="10"/>
<path d="M147.64 43.9598C147.64 43.9598 150.64 40.1698 153.14 43.9598" stroke="black" stroke-miterlimit="10"/>
<path d="M130.57 30.2702C130.57 30.2702 141.15 37.2402 149.15 33.2402C157.15 29.2402 171.15 38.2402 171.15 38.2402L173.15 25.2402L163.15 14.2402H141.15L129.27 22.1702L130.58 30.2702H130.57Z" fill="black"/>
<path d="M150.05 49.0303C150.05 49.0303 146.2 60.1703 150.69 59.6903" stroke="black" stroke-miterlimit="10"/>
<path d="M145.024 63.3722C144.852 65.2753 146.99 67.01 150 66.5C152.259 66.1143 153.716 64.7564 153.997 63.1333" fill="black"/>
<path d="M145.024 63.3722C144.852 65.2753 146.99 67.01 150 66.5C152.259 66.1143 153.716 64.7564 153.997 63.1333" stroke="black" stroke-miterlimit="10"/>
<path d="M165.51 80.2402L164.64 79.7402V80.7402L165.08 81.5102L165.51 80.2402Z" fill="#EF9748"/>
<path d="M166.02 64.8096L164.99 84.2496L164.14 100.25L161.14 102.5L156.15 104.45L154.12 105.24L141.98 103.47L133.38 89.4596L133.33 85.3796L133.14 69.0896V68.7296L138.55 69.7996L152.14 72.0596L166.02 64.8096Z" fill="#FFCAA2"/>
<path d="M133.14 68.29C133.14 68.29 148.14 82.24 158.14 74.24" stroke="black" stroke-miterlimit="10"/>
<path d="M250.293 160.233C235.528 138.711 218.377 128.063 209.651 130.664C196.82 134.485 199.153 177.588 199.509 194.893C193.31 185.458 185.631 177.723 177.098 172.319C170.672 168.245 163.35 165.468 156.416 167.69C149.482 169.912 143.38 178.497 144.19 187.823C128.043 156.209 105.751 130.075 80.0247 112.601C63.7593 101.558 19.5534 78.5972 11.9824 102.425C3.67684 128.56 50.7665 209 50.7665 209H279C279 209 263.631 179.676 250.293 160.233Z" fill="#1A73E8"/>
<path d="M211.14 105.17L205.77 162.29L205.14 169L199.2 232.24H99.5497L95.2396 169L94.7796 162.29L85.1396 102.24C99.3296 95.1102 112.04 90.0502 124.15 87.5902C128.36 86.7302 132.44 86.1102 136.38 85.7002L149.06 104.01L161.7 85.7502C166.02 86.2402 170.09 86.9602 173.89 87.8402C197.83 93.3702 211.14 105.17 211.14 105.17Z" fill="#EF9748"/>
<path d="M154.5 137.5C156.157 137.5 157.5 136.157 157.5 134.5C157.5 132.843 156.157 131.5 154.5 131.5C152.843 131.5 151.5 132.843 151.5 134.5C151.5 136.157 152.843 137.5 154.5 137.5Z" stroke="black"/>
<path d="M211.14 105.17C211.14 105.17 247.14 155.24 248.14 178.24C248.95 196.89 241.8 210.07 239.07 214.38C238.43 215.38 236.14 215.24 236.14 215.24L214.57 210.28L202.14 148.24L211.14 105.17Z" fill="#EF9748"/>
<path d="M149.06 104.01L132.6 119.24L124.15 87.5902V87.5502C125.55 83.9002 132.6 80.2402 132.6 80.2402L136.38 85.7002L149.06 104.01Z" fill="#EF9748"/>
<path d="M173.97 87.5502L173.89 87.8402L165.51 119.24L149.06 104.01L161.7 85.7502L165.51 80.2402C165.51 80.2402 172.56 83.9002 173.97 87.5502Z" fill="#EF9748"/>
<path d="M173.89 87.8398L165.51 119.24L149.06 104.01L132.6 119.24L124.29 88.0998" stroke="black" stroke-miterlimit="10"/>
<path d="M133.28 81.2296L132.72 80.4096L132.6 80.2396L133.27 79.8096L133.28 81.2296Z" fill="#EF9748"/>
<path d="M149.06 104.01V232.24" stroke="black" stroke-miterlimit="10"/>
<path d="M210.51 224.38C208.6 226.55 205.91 228.19 204.61 230.86" stroke="black" stroke-miterlimit="10"/>
<path d="M206.14 115.24L201.14 153.24" stroke="black" stroke-miterlimit="10"/>
<path d="M235.2 217.82C235.2 217.82 239.24 214.93 238.44 213.34C237.64 211.75 236.14 204.24 231.65 202.75C227.84 201.48 232.3 200.26 222.47 201.5L235.2 217.82Z" fill="#FFCAA2"/>
<path d="M244.08 204.12C244.08 204.12 240.64 189.74 228.64 190.74C216.64 191.74 214.64 194.74 214.64 194.74" stroke="black" stroke-miterlimit="10"/>
<path d="M219.57 234.41C219.49 234.57 219.34 234.72 219.12 234.86C217.77 235.75 214.14 236.24 214.14 236.24C212.14 237.24 208.07 235.71 208.07 235.71C206 237.18 205.14 235.24 205.14 235.24C203.47 236.08 201.56 235.69 199.9 234.95C197.6 233.93 195.78 232.24 195.78 232.24L200.5 230.24H216.14C216.14 230.24 220.14 233.24 219.57 234.41Z" fill="#FFCAA2"/>
<path d="M79.4404 234.41C79.5204 234.57 79.6704 234.72 79.8904 234.86C81.2404 235.75 84.8704 236.24 84.8704 236.24C86.8704 237.24 90.9404 235.71 90.9404 235.71C93.0104 237.18 93.8704 235.24 93.8704 235.24C95.5404 236.08 97.4504 235.69 99.1104 234.95C101.41 233.93 103.23 232.24 103.23 232.24L98.5104 230.24H82.8704C82.8704 230.24 78.8704 233.24 79.4404 234.41Z" fill="#FFCAA2"/>
<path d="M85.1402 102.24C85.1402 102.24 50.8702 155.03 49.8702 178.03C49.0602 196.68 56.2102 209.86 58.9402 214.17C59.5802 215.17 61.8702 215.03 61.8702 215.03L83.4402 210.07L95.8702 148.03L85.1402 102.24Z" fill="#EF9748"/>
<path d="M53.6396 203.74C53.6396 203.74 56.3696 190.53 68.3696 191.53C80.3696 192.53 82.3696 195.53 82.3696 195.53" stroke="black" stroke-miterlimit="10"/>
<path d="M87.6396 106.74L99.2796 153.24" stroke="black" stroke-miterlimit="10"/>
<path d="M216.03 169H82.1396V232.24H216.03V169Z" fill="#1A73E8"/>
<path d="M216.03 169H82.1396L94.4397 151.24H205.1L216.03 169Z" fill="#EF9748"/>
<path d="M135.64 189.24H91.8603L83.5503 168.24L71.4203 137.56C70.4203 135.02 71.6603 132.15 74.2003 131.15L102.87 119.81C105.41 118.8 108.28 120.05 109.28 122.59L127.34 168.24L135.64 189.24Z" fill="black"/>
<path d="M83.2578 132.663L80.1809 133.799C79.2173 134.155 78.7246 135.225 79.0805 136.188L80.2169 139.265C80.5727 140.229 81.6424 140.721 82.6061 140.365L85.6829 139.229C86.6466 138.873 87.1392 137.804 86.7834 136.84L85.647 133.763C85.2911 132.799 84.2215 132.307 83.2578 132.663Z" fill="white"/>
<path d="M86.3691 141.102L83.2923 142.238C82.3286 142.594 81.836 143.664 82.1919 144.628L83.3282 147.704C83.6841 148.668 84.7538 149.161 85.7174 148.805L88.7943 147.669C89.7579 147.313 90.2506 146.243 89.8947 145.279L88.7583 142.203C88.4025 141.239 87.3328 140.746 86.3691 141.102Z" fill="white"/>
<path d="M89.4853 149.535L86.4085 150.671C85.4448 151.027 84.9522 152.097 85.308 153.06L96.8377 184.279C97.1936 185.243 98.2633 185.736 99.2269 185.38L102.304 184.243C103.268 183.887 103.761 182.818 103.405 181.854L91.8745 150.635C91.5187 149.671 90.449 149.179 89.4853 149.535Z" fill="white"/>
<path d="M91.6943 129.542L88.6175 130.678C87.6538 131.034 87.1612 132.103 87.517 133.067L88.6534 136.144C89.0093 137.108 90.0789 137.6 91.0426 137.244L94.1195 136.108C95.0831 135.752 95.5758 134.682 95.2199 133.719L94.0835 130.642C93.7277 129.678 92.658 129.186 91.6943 129.542Z" fill="white"/>
<path d="M94.8144 137.978L91.7376 139.114C90.7739 139.47 90.2813 140.54 90.6372 141.504L91.7735 144.58C92.1294 145.544 93.199 146.037 94.1627 145.681L97.2396 144.545C98.2032 144.189 98.6959 143.119 98.34 142.155L97.2036 139.078C96.8478 138.115 95.7781 137.622 94.8144 137.978Z" fill="white"/>
<path d="M97.9297 146.427L94.8528 147.564C93.8892 147.92 93.3965 148.989 93.7524 149.953L94.8887 153.03C95.2446 153.993 96.3143 154.486 97.2779 154.13L100.355 152.994C101.319 152.638 101.812 151.568 101.456 150.605L100.319 147.528C99.963 146.564 98.8933 146.071 97.9297 146.427Z" fill="white"/>
<path d="M101.05 154.874L97.9729 156.01C97.0093 156.366 96.5166 157.435 96.8725 158.399L98.0088 161.476C98.3647 162.44 99.4344 162.932 100.398 162.576L103.475 161.44C104.439 161.084 104.932 160.014 104.576 159.051L103.439 155.974C103.084 155.01 102.014 154.518 101.05 154.874Z" fill="white"/>
<path d="M104.162 163.31L101.085 164.446C100.121 164.802 99.628 165.872 99.9839 166.836L101.121 169.913C101.476 170.876 102.546 171.369 103.51 171.013L106.587 169.877C107.55 169.521 108.043 168.451 107.687 167.487L106.551 164.411C106.195 163.447 105.125 162.954 104.162 163.31Z" fill="white"/>
<path d="M107.282 171.747L104.205 172.883C103.242 173.239 102.749 174.309 103.105 175.272L104.241 178.349C104.597 179.313 105.667 179.805 106.63 179.449L109.707 178.313C110.671 177.957 111.164 176.888 110.808 175.924L109.671 172.847C109.315 171.883 108.246 171.391 107.282 171.747Z" fill="#A49DD0"/>
<path d="M101.075 126.076L97.9974 127.212C97.0338 127.568 96.541 128.638 96.8969 129.601L98.0333 132.678C98.3891 133.642 99.4588 134.134 100.423 133.779L103.5 132.642C104.463 132.286 104.956 131.217 104.6 130.253L103.464 127.176C103.108 126.213 102.038 125.72 101.075 126.076Z" fill="white"/>
<path d="M104.195 134.522L101.118 135.658C100.155 136.014 99.6621 137.084 100.018 138.048L101.154 141.124C101.51 142.088 102.58 142.581 103.543 142.225L106.62 141.089C107.584 140.733 108.077 139.663 107.721 138.699L106.584 135.622C106.229 134.659 105.159 134.166 104.195 134.522Z" fill="white"/>
<path d="M107.307 142.962L104.23 144.099C103.267 144.455 102.774 145.524 103.13 146.488L104.266 149.565C104.622 150.528 105.692 151.021 106.655 150.665L109.732 149.529C110.696 149.173 111.188 148.103 110.833 147.14L109.696 144.063C109.34 143.099 108.271 142.607 107.307 142.962Z" fill="white"/>
<path d="M110.431 151.408L107.354 152.544C106.391 152.9 105.898 153.97 106.254 154.933L107.39 158.01C107.746 158.974 108.816 159.466 109.779 159.111L112.856 157.974C113.82 157.618 114.312 156.549 113.957 155.585L112.82 152.508C112.464 151.545 111.395 151.052 110.431 151.408Z" fill="white"/>
<path d="M113.541 159.844L110.465 160.981C109.501 161.336 109.008 162.406 109.364 163.37L110.5 166.447C110.856 167.41 111.926 167.903 112.89 167.547L115.967 166.411C116.93 166.055 117.423 164.985 117.067 164.022L115.931 160.945C115.575 159.981 114.505 159.488 113.541 159.844Z" fill="white"/>
<path d="M116.663 168.281L113.586 169.417C112.622 169.773 112.129 170.843 112.485 171.806L113.622 174.883C113.977 175.847 115.047 176.34 116.011 175.984L119.088 174.847C120.051 174.491 120.544 173.422 120.188 172.458L119.052 169.381C118.696 168.418 117.626 167.925 116.663 168.281Z" fill="#A49DD0"/>
<path d="M217.14 171.24C217.14 171.24 225.28 164.76 233.71 169" stroke="black" stroke-miterlimit="10"/>
<path d="M237.96 193.75L232.14 203.24" stroke="black" stroke-miterlimit="10"/>
<path d="M235.2 217.82C235.2 217.82 228.7 224.21 226.4 226.98C224.26 229.55 221.91 232.04 219.57 234.41C219.42 234.56 219.27 234.71 219.12 234.86C217.77 235.75 214.14 236.24 214.14 236.24C212.14 237.24 208.07 235.71 208.07 235.71C206 237.18 205.14 235.24 205.14 235.24C203.47 236.08 201.56 235.69 199.9 234.95C200.82 233.44 201.71 231.85 202.54 230.24C203.42 228.54 204.23 226.82 204.95 225.14C205.34 224.22 206.19 222.04 205.6 221.86C205.02 221.69 203.06 222.86 202.56 223.12C201.15 223.84 196.74 224.77 196.47 222.19C196.33 220.9 199.03 219.97 199.85 219.39C202.88 217.22 205.29 214.33 207.74 211.55C210.53 208.4 217.29 203.28 222.47 201.5L235.2 217.82Z" fill="#FFCAA2"/>
<path d="M215.64 204.74C215.64 204.74 232.82 192.03 238.73 214.38" stroke="black" stroke-miterlimit="10"/>
<path d="M198.55 232.24C198.55 232.24 204.09 230.24 204.61 228.74C205.13 227.24 203.31 233.41 203.31 233.41L201.62 233.88L198.54 232.24H198.55Z" fill="#FFCAA2"/>
<path d="M205.07 233.41C205.07 233.41 210.89 228.81 210.52 227.03" stroke="black" stroke-miterlimit="10"/>
<path d="M210.51 234.38C210.51 234.38 218.78 229.5 218.71 227.62" stroke="black" stroke-miterlimit="10"/>
<path d="M239.981 202.938C240.484 201.955 240.294 200.852 239.556 200.475C238.819 200.098 237.813 200.589 237.31 201.573C236.808 202.556 236.998 203.659 237.735 204.036C238.473 204.413 239.479 203.922 239.981 202.938Z" stroke="black" stroke-miterlimit="10"/>
<path d="M63.8097 217.82C63.8097 217.82 59.7697 214.93 60.5697 213.34C61.3697 211.75 62.8697 204.24 67.3597 202.75C71.1697 201.48 66.7097 200.26 76.5397 201.5L63.8097 217.82Z" fill="#FFCAA2"/>
<path d="M80.8698 170.03C80.8698 170.03 72.7298 163.55 64.2998 167.79" stroke="black" stroke-miterlimit="10"/>
<path d="M58.8203 195.1L64.6403 204.59" stroke="black" stroke-miterlimit="10"/>
<path d="M63.8105 217.82C63.8105 217.82 70.3105 224.21 72.6105 226.98C74.7505 229.55 77.1005 232.04 79.4405 234.41C79.5905 234.56 79.7405 234.71 79.8905 234.86C81.2405 235.75 84.8705 236.24 84.8705 236.24C86.8705 237.24 90.9405 235.71 90.9405 235.71C93.0105 237.18 93.8705 235.24 93.8705 235.24C95.5405 236.08 97.4505 235.69 99.1105 234.95C98.1905 233.44 97.3005 231.85 96.4705 230.24C95.5905 228.54 94.7805 226.82 94.0605 225.14C93.6705 224.22 92.8205 222.04 93.4105 221.86C93.9905 221.69 95.9506 222.86 96.4506 223.12C97.8606 223.84 102.27 224.77 102.54 222.19C102.68 220.9 99.9805 219.97 99.1605 219.39C96.1305 217.22 93.7205 214.33 91.2705 211.55C88.4805 208.4 81.7205 203.28 76.5405 201.5L63.8105 217.82Z" fill="#FFCAA2"/>
<path d="M82.3696 204.53C82.3696 204.53 65.5496 192.39 59.6396 214.74" stroke="black" stroke-miterlimit="10"/>
<path d="M97.4601 233.03C97.4601 233.03 91.9201 231.03 91.4001 229.53C90.8801 228.03 92.7001 234.2 92.7001 234.2L94.3901 234.67L97.4701 233.03H97.4601Z" fill="#FFCAA2"/>
<path d="M93.9406 233.41C93.9406 233.41 88.1206 228.81 88.4906 227.03" stroke="black" stroke-miterlimit="10"/>
<path d="M88.4905 234.38C88.4905 234.38 80.2205 229.5 80.2905 227.62" stroke="black" stroke-miterlimit="10"/>
<path d="M59.2897 204.801C60.0273 204.423 60.2176 203.32 59.7148 202.337C59.2119 201.353 58.2064 200.862 57.4688 201.239C56.7312 201.616 56.5408 202.719 57.0437 203.703C57.5465 204.686 58.5521 205.178 59.2897 204.801Z" stroke="black" stroke-miterlimit="10"/>
<path d="M205.477 108.128L182.369 101.354L159.783 178.391L182.891 185.166L205.477 108.128Z" fill="white"/>
<path d="M205.49 108.12C205.49 108.12 198.62 93.4498 182.38 101.35L205.49 108.12Z" fill="white"/>
<path d="M201.14 106.03C201.14 106.03 199.64 101.74 194.64 101.74C189.64 101.74 192.64 105.74 194.64 105.74" stroke="black" stroke-miterlimit="10"/>
<path d="M183.14 102.24C183.14 102.24 196.14 113.24 203.64 108.74" stroke="black" stroke-miterlimit="10"/>
<path d="M233.613 149.577L216.428 132.71L160.194 190.004L177.379 206.871L233.613 149.577Z" fill="white"/>
<path d="M233.629 149.577C233.629 149.577 234.485 133.401 216.439 132.713L233.629 149.577Z" fill="white"/>
<path d="M230.778 145.683C230.778 145.683 231.477 141.193 227.067 138.836C222.658 136.479 223.418 141.421 225.182 142.363" stroke="black" stroke-miterlimit="10"/>
<path d="M216.689 133.855C216.689 133.855 222.969 149.685 231.705 149.252" stroke="black" stroke-miterlimit="10"/>
<path d="M192.444 115.775L171.305 104.244L132.863 174.722L154.003 186.252L192.444 115.775Z" fill="white"/>
<path d="M192.44 115.78C192.44 115.78 189.45 100.25 171.3 104.25L192.44 115.78Z" fill="white"/>
<path d="M171.3 105.24C171.3 105.24 179.71 119.31 190.93 115.78" stroke="black" stroke-miterlimit="10"/>
<path d="M188.64 112.74C188.64 112.74 182.64 104.74 178.64 105.74C174.64 106.74 181.87 108.88 181.87 108.88" stroke="black" stroke-miterlimit="10"/>
<path d="M189.5 121L168 165.5" stroke="black"/>
<path d="M189 160L181 167" stroke="black"/>
<path d="M200 185H158V210H200V185Z" fill="#1A73E8"/>
<path d="M220.14 189.24H75.1396L82.1396 168.24H216.14L220.14 189.24Z" fill="#1A73E8"/>
<path d="M120.85 170.03C120.85 170.03 124.04 163.46 126.59 166.35C129.14 169.24 128.14 194.24 128.14 194.24" stroke="black" stroke-width="2" stroke-miterlimit="10"/>
<path d="M134.86 201.841C134.86 202.115 134.844 202.388 134.828 202.645H122.032C122.016 202.388 122 202.115 122 201.841C122 196.954 124.877 193 128.43 193C131.983 193 134.86 196.954 134.86 201.841Z" fill="black"/>
<path d="M126.822 201.037H125.215V207.467H126.822V201.037Z" fill="black"/>
<path d="M131.645 201.037H130.038V207.467H131.645V201.037Z" fill="black"/>
<path d="M82.3701 189.24H124.14" stroke="black" stroke-miterlimit="10"/>
<path d="M132.14 189.24H215.14" stroke="black" stroke-miterlimit="10"/>
<path d="M154.5 123.5C156.157 123.5 157.5 122.157 157.5 120.5C157.5 118.843 156.157 117.5 154.5 117.5C152.843 117.5 151.5 118.843 151.5 120.5C151.5 122.157 152.843 123.5 154.5 123.5Z" stroke="black"/>
<path d="M125 168H119V172H125V168Z" fill="#1A73E8"/>
<path d="M256 65C256 71.6 250.6 77 244 77C237.4 77 232 71.6 232 65C232 58.4 237.4 53 244 53C250.9 53 256 58.4 256 65Z" fill="#EF9748"/>
<path d="M279 163.5C279 168.175 275.175 172 270.5 172C265.825 172 262 168.175 262 163.5C262 158.825 265.825 155 270.5 155C275.387 155 279 158.825 279 163.5Z" fill="#1A73E8"/>
<path d="M53.4773 108.338C51.1222 107.091 49.1411 104.432 48.9102 101.757C48.6569 99.3209 49.9689 96.9116 49.0412 94.5931C47.6824 91.0882 43.1825 90.8457 40.7661 88.3268C38.74 86.1462 38.7278 83.0695 40.0511 80.5407C41.1016 78.3481 42.8897 76.647 44.6125 75" stroke="black" stroke-width="1.5" stroke-miterlimit="10"/>
<path d="M136 40.3252C137.667 39.3252 141.6 37.9252 144 40.3252" stroke="black"/>
<path d="M165 40.3252C163.333 39.3252 159.4 37.9252 157 40.3252" stroke="black"/>
</svg>
