<svg width="569" height="359" viewBox="0 0 569 359" fill="none" xmlns="http://www.w3.org/2000/svg">
<path d="M300.538 54.7821C264.792 46.3766 238.725 54.5274 208.922 64.8008C194.233 69.895 179.374 75.2439 163.921 77.2816C152.373 78.8099 140.741 79.2344 129.108 80.3382C117.051 81.5268 104.994 83.0551 93.1922 85.6871C73.3237 90.187 38.5962 98.4227 40.7189 125.167C41.568 135.865 48.8701 145.629 48.1908 156.412C47.2568 170.166 34.4357 180.864 26.0297 190.543C14.3973 203.958 3.95356 218.901 5.90645 237.495C7.4348 252.523 17.1993 265.768 29.2562 274.938C41.3132 284.107 55.5778 289.796 69.6726 295.4C91.0695 303.975 109.155 313.909 126.052 329.786C135.816 338.955 146.175 348.125 158.826 352.54C175.808 358.568 197.46 353.304 204.422 335.304C208.158 325.456 209.262 314.079 215.121 305.164C221.149 295.994 233.885 288.268 245.093 289.711C263.349 292.173 270.481 305.673 279.141 319.937C283.387 326.899 288.396 333.267 295.614 337.512C307.841 344.644 320.067 341.842 332.973 338.955C346.898 335.814 360.993 333.267 375.173 331.569C399.287 328.682 423.486 329.956 447.515 333.012C470.27 335.899 503.384 350.842 522.149 330.55C530.385 321.635 531.998 309.409 529.027 298.032C524.696 281.73 515.441 263.646 515.951 246.665C516.715 221.703 527.923 205.062 541.763 185.449C548.386 176.11 553.48 165.667 553.226 154.035C552.716 127.12 535.819 106.404 518.158 87.8946C500.582 69.3856 483.006 48.2445 465.261 31.8581" stroke="#ED725A" stroke-width="1.5" stroke-miterlimit="10"/>
<path d="M556.367 82.2909C556.367 86.1964 553.226 89.3379 549.32 89.3379C545.415 89.3379 542.273 86.1964 542.273 82.2909C542.273 78.3853 545.415 75.2438 549.32 75.2438C553.226 75.2438 556.367 78.3853 556.367 82.2909Z" stroke="#ED725A" stroke-width="1.5" stroke-miterlimit="10"/>
<path d="M319.217 322.144C319.217 326.05 316.076 329.191 312.17 329.191C308.265 329.191 305.123 326.05 305.123 322.144C305.123 318.239 308.265 315.097 312.17 315.097C315.991 315.012 319.217 318.239 319.217 322.144Z" stroke="#ED725A" stroke-width="1.5" stroke-miterlimit="10"/>
<path d="M294.426 13.6888C297.398 13.6888 299.775 16.0661 299.775 19.0377V124.319C299.775 127.29 297.398 129.667 294.426 129.667H90.1365C87.1647 129.667 84.7873 127.29 84.7873 124.319V19.0377C84.7873 16.0661 87.1647 13.6888 90.1365 13.6888H294.426ZM294.426 12.4152H90.1365C86.4855 12.4152 83.5137 15.3869 83.5137 19.0377V124.319C83.5137 127.969 86.4855 130.941 90.1365 130.941H294.426C298.077 130.941 301.049 127.969 301.049 124.319V19.0377C301.049 15.3869 298.077 12.4152 294.426 12.4152Z" fill="#909DF4"/>
<path d="M294.426 129.582H90.1363C87.1645 129.582 84.7871 127.205 84.7871 124.233V27.8676H299.775V124.233C299.775 127.205 297.398 129.582 294.426 129.582Z" fill="#AFB9E8"/>
<path d="M97.3533 21.2451C97.3533 22.9432 95.9949 24.3016 94.2968 24.3016C92.5987 24.3016 91.2402 22.9432 91.2402 21.2451C91.2402 19.547 92.5987 18.1886 94.2968 18.1886C95.9949 18.1886 97.3533 19.547 97.3533 21.2451Z" stroke="#909DF4" stroke-width="1.5" stroke-miterlimit="10"/>
<path d="M109.156 21.2451C109.156 22.9432 107.798 24.3016 106.1 24.3016C104.401 24.3016 103.043 22.9432 103.043 21.2451C103.043 19.547 104.401 18.1886 106.1 18.1886C107.798 18.1886 109.156 19.547 109.156 21.2451Z" stroke="#909DF4" stroke-width="1.5" stroke-miterlimit="10"/>
<path d="M84.7871 27.8676H299.775" stroke="#909DF4" stroke-width="1.5" stroke-miterlimit="10"/>
<path d="M282.537 114.894C280.415 112.007 276.679 109.375 273.792 111.328C271.414 112.941 271.245 116.762 271.499 119.818C264.622 110.139 256.471 101.479 247.385 94.3473C242.461 90.4417 236.772 86.8758 230.743 87.3852C224.715 87.8946 221.488 96.385 223.102 102.753C206.544 80.8476 188.034 65.3102 168.845 51.8105C162.307 47.2257 155.005 42.8107 147.194 40.1786C138.872 37.3768 127.495 34.1505 119.938 40.6032C116.711 43.405 115.098 47.5653 114.589 51.8105C113.994 56.9896 114.928 62.5084 116.287 67.5177C119.683 79.574 125.117 90.8663 131.485 101.564C137.854 112.262 151.694 129.752 151.694 129.752H289.075C288.056 124.318 285.764 119.139 282.537 114.894Z" fill="#909DF4"/>
<path d="M210.281 108.357C210.281 108.357 183.875 85.5174 172.582 81.6118C161.289 77.7063 138.024 83.9892 137.769 83.9892C137.515 83.9892 116.967 129.667 116.967 129.667H201.111L210.281 108.357Z" fill="#EF9748"/>
<path d="M260.377 170.421C262.33 172.459 264.283 174.327 266.405 176.195C268.358 177.978 270.566 179.591 272.519 181.459C273.028 181.883 273.453 182.393 273.877 182.902C275.491 184.685 277.104 186.553 278.208 188.591C278.378 188.846 278.547 189.185 278.717 189.355C278.972 189.61 279.311 189.695 279.566 189.61C279.906 189.525 280.076 189.185 280.245 188.93C280.84 187.657 280.67 186.214 280.33 184.855C280.076 184.006 279.821 183.157 279.566 182.308C279.396 181.629 279.057 180.865 279.142 180.1C284.831 182.478 289.416 186.723 294.51 190.034C295.529 190.713 297.906 190.968 298.246 190.034C298.756 188.761 291.284 183.242 287.802 179.591C290.434 180.949 293.152 182.308 295.529 184.091C297.142 185.28 298.925 186.298 300.878 186.978C301.982 187.317 304.444 187.827 303.935 185.874C303.765 185.28 303.341 184.855 302.916 184.431C299.52 181.204 295.529 178.827 291.963 175.77C295.954 177.299 299.605 180.185 303.85 180.27C304.275 180.27 304.699 180.27 305.039 180.016C305.548 179.591 305.718 179.082 305.378 178.572C305.039 178.063 304.529 177.638 303.935 177.383C299.944 174.921 295.869 172.289 291.878 169.827C294.001 170.421 295.954 171.44 297.991 172.289C300.029 173.138 302.237 173.818 304.444 173.478C305.124 173.393 306.058 172.968 305.888 172.204C305.803 171.865 305.463 171.61 305.209 171.44C300.369 168.129 295.529 164.818 290.774 161.591C289.416 160.657 288.057 159.723 286.699 158.874C285 157.856 283.132 157.007 281.519 155.903C280.33 154.969 278.802 154.29 277.528 153.526C274.302 151.573 271.245 149.45 268.189 147.158" fill="#FFCAA3"/>
<path d="M279.311 180.1C277.783 179.421 276.255 178.827 274.727 178.233" stroke="black" stroke-miterlimit="10"/>
<path d="M288.143 179.591C286.105 178.148 283.983 176.874 281.775 175.685" stroke="black" stroke-miterlimit="10"/>
<path d="M292.047 175.601C290.349 174.497 288.651 173.478 286.953 172.374" stroke="black" stroke-miterlimit="10"/>
<path d="M293.915 170.761C292.641 170.082 291.452 169.318 290.264 168.469" stroke="black" stroke-miterlimit="10"/>
<path d="M178.695 82.2911C189.139 85.6023 194.318 85.8571 203.658 91.6305C213.593 97.7436 238.046 123.554 238.046 123.554C238.046 123.554 271.076 146.818 283.472 155.648L261.226 176.874C236.603 162.186 211.385 144.611 192.705 122.79" fill="#EF9748"/>
<path d="M140.91 125.167C140.91 125.167 151.269 119.649 155.769 118.46C162.052 116.847 169.524 116.422 171.562 117.017C172.496 117.271 176.062 118.715 177.845 120.922C179.798 121.771 180.562 122.196 181.751 122.705C182.94 123.215 183.449 124.573 184.723 125.592C185.912 126.611 187.27 129.582 187.27 129.582C187.27 129.582 178.015 129.582 175.383 129.667C172.751 129.752 169.949 134.762 164.09 136.545" fill="#FFCAA3"/>
<path d="M162.137 78.2156C155.005 78.1307 147.957 76.2628 140.825 76.2628C127.834 76.2628 120.362 83.0551 114.079 92.4795C109.324 99.6114 104.824 108.441 101.428 116.253C97.437 125.422 93.0218 135.611 91.918 145.629C91.4085 150.214 92.0878 154.969 94.1256 159.044C98.0314 166.601 106.777 167.874 111.787 168.468C116.881 169.063 125.796 167.28 130.127 164.648C153.052 150.469 168.251 136.205 168.251 136.205L143.542 123.554L131.74 128.224L146.684 100.63" fill="#EF9748"/>
<path d="M145.495 102.753L131.74 128.139" stroke="black" stroke-miterlimit="10"/>
<path d="M143.543 123.554C136.496 126.271 129.363 129.073 122.316 131.79C117.476 133.658 112.721 137.394 108.9 140.79" stroke="black" stroke-miterlimit="10"/>
<path d="M135.137 126.95L160.694 142.743" stroke="black" stroke-miterlimit="10"/>
<path d="M203.828 114.639C200.431 120.243 195.762 129.582 195.762 129.582" stroke="black" stroke-miterlimit="10"/>
<path d="M274.471 149.28L249.678 169.997" stroke="black" stroke-miterlimit="10"/>
<path d="M176.912 123.639C178.695 124.149 180.563 124.488 182.346 124.743C182.94 124.828 183.535 124.913 183.959 125.167" stroke="black" stroke-miterlimit="10"/>
<path d="M178.44 121.432C178.1 121.262 177.761 121.177 177.421 121.007C175.638 120.328 173.77 119.649 171.902 119.734" stroke="black" stroke-miterlimit="10"/>
<path d="M172.666 130.771C173.6 130.092 174.789 129.752 175.977 129.667C178.439 129.413 181.072 129.922 183.364 128.988" stroke="black" stroke-miterlimit="10"/>
<path d="M80.7969 147.497C81.2214 157.176 87.3345 166.431 96.1645 170.421" stroke="black" stroke-miterlimit="10"/>
<path d="M73.918 147.073C74.0878 153.356 76.7198 159.469 80.7952 163.119" stroke="black" stroke-miterlimit="10"/>
<path d="M213.082 85.772C220.639 92.1398 227.601 99.1868 233.969 106.743" stroke="black" stroke-miterlimit="10"/>
<path d="M213.252 78.2157C218.516 82.1213 223.356 86.6212 227.601 91.6305" stroke="black" stroke-miterlimit="10"/>
<path d="M152.374 91.0361C148.384 89.5927 144.732 87.4701 141.081 85.3475C139.553 84.4136 137.94 83.4796 136.751 82.2061C135.477 80.9325 134.543 79.2344 134.628 77.3666C134.628 75.7534 135.477 74.1402 136.496 72.8667C139.723 68.7913 144.902 66.7536 150.082 66.2442C155.261 65.7347 160.356 66.7536 165.45 67.9422C173.007 69.7252 180.734 72.1025 186.592 77.1968C188.206 78.6401 189.734 80.3382 190.668 82.291C191.942 85.0079 192.026 88.2343 191.517 91.2059C191.008 94.1775 189.819 96.9794 188.715 99.7812" fill="#EF9748"/>
<path d="M172.752 61.2348L162.563 64.2064L162.818 69.3006L157.639 78.0457C157.639 78.0457 169.781 82.7154 174.366 92.3945C179.375 93.1586 181.328 89.0832 181.328 89.0832L186.253 77.3665" fill="#FFCAA3"/>
<path d="M196.697 71.4234C197.546 66.414 198.649 60.8953 198.565 56.9048C198.48 53.5086 197.97 48.4144 195.763 45.6975C192.961 42.3013 187.781 42.2164 183.451 41.707C176.404 40.9429 171.479 47.3107 169.356 53.3388C167.743 57.9236 167.913 62.4235 169.356 67.1782C171.309 73.3761 178.187 81.6967 187.187 80.6779C192.027 80.2534 195.763 76.7723 196.697 71.4234Z" fill="#FFCAA3"/>
<path d="M188.035 60.3857C187.95 61.1499 187.441 61.6593 186.846 61.6593C186.252 61.5744 185.912 60.8951 185.997 60.2159C186.082 59.4518 186.592 58.9424 187.186 58.9424C187.695 58.9424 188.12 59.6216 188.035 60.3857Z" fill="black"/>
<path d="M197.799 61.3197C197.714 62.0839 197.204 62.5933 196.61 62.5933C196.016 62.5084 195.676 61.8292 195.761 61.1499C195.846 60.3858 196.355 59.8764 196.95 59.8764C197.544 59.8764 197.884 60.5556 197.799 61.3197Z" fill="black"/>
<path d="M193.47 59.6217C193.215 61.3197 193.47 63.1027 193.47 64.8857C193.47 65.9895 193.47 67.8573 192.111 68.1121C191.177 68.2819 189.225 67.6875 189.225 67.6875" stroke="black" stroke-miterlimit="10"/>
<path d="M189.904 70.829L186.253 67.7724C186.253 67.7724 183.536 71.3384 184.979 72.612C187.187 74.5647 189.904 70.829 189.904 70.829Z" fill="white"/>
<path d="M195.933 46.8012C197.546 49.3483 198.48 51.386 198.48 59.0273C199.245 58.8575 200.009 58.6028 200.773 58.2632C201.452 57.8387 202.047 57.2444 202.301 56.4802C202.641 55.0369 201.622 53.5935 201.537 52.1501C201.452 51.0464 201.962 50.0275 202.556 49.1785C202.981 48.4993 203.49 47.82 203.66 46.971C203.83 45.7823 203.066 44.7635 202.216 43.9145C200.264 42.1315 197.716 41.4522 195.509 40.1787C194.405 39.5844 193.895 38.5655 192.877 37.8863C191.773 37.0372 190.584 36.358 189.31 35.7637C186.423 34.4052 183.282 33.6411 180.055 33.4713C173.857 33.2166 167.744 35.509 163.413 39.8391C157.724 45.5276 155.432 56.4802 158.998 62.7631C161.036 66.3291 162.904 69.2158 162.904 69.2158C163.159 69.5554 168.083 65.1404 168.338 64.5461C168.678 63.9518 168.763 63.2725 168.932 62.5933C169.612 60.3858 171.819 59.9613 173.687 59.2821C176.489 58.2632 177.848 55.801 178.442 52.9992C178.782 51.386 178.782 49.7728 178.867 48.0747C178.867 48.4144 181.074 49.2634 181.414 49.3483C184.725 50.3672 188.461 50.537 191.858 49.6879C192.876 49.4332 193.895 49.0936 194.744 48.4144C194.914 48.2446 196.273 47.1408 195.933 46.8012Z" fill="#1E1611"/>
<path d="M175.129 76.263C175.299 76.4328 178.865 80.2535 185.572 80.8478" stroke="black" stroke-miterlimit="10"/>
<path d="M182.092 55.0367C182.686 53.8481 183.875 52.999 185.233 52.8292C186.507 52.6594 187.95 53.1688 188.799 54.1877" stroke="black" stroke-miterlimit="10"/>
<path d="M194.572 55.2068C194.997 54.1879 195.931 53.5936 196.78 53.6785C197.629 53.8483 198.223 54.6974 198.308 55.8011" stroke="black" stroke-miterlimit="10"/>
<path d="M191.517 62.3386C190.668 64.8857 187.951 66.2442 185.489 65.3951C183.026 64.5461 181.668 61.7443 182.517 59.1972C183.366 56.65 186.083 55.2916 188.545 56.1406C191.007 56.9897 192.366 59.7915 191.517 62.3386Z" stroke="#572A2F" stroke-miterlimit="10"/>
<path d="M200.687 63.5272C200.262 66.1592 198.479 68.112 196.866 67.7724C195.253 67.4328 194.234 65.0555 194.743 62.4235C195.168 59.7914 196.951 57.8386 198.564 58.1783C200.177 58.433 201.111 60.8952 200.687 63.5272Z" stroke="#572A2F" stroke-miterlimit="10"/>
<path d="M195.168 60.9802L191.771 60.3858" stroke="#572A2F" stroke-miterlimit="10"/>
<path d="M182.686 58.6877L172.582 59.4518" stroke="#572A2F" stroke-miterlimit="10"/>
<path d="M175.468 61.2347C175.383 58.7725 172.072 56.9046 169.949 57.6688C164.685 59.5366 166.468 68.8761 171.308 69.81C172.666 70.0647 174.619 69.5553 175.129 67.9421" fill="#FFCAA3"/>
<path d="M169.609 61.8293L174.109 65.9047" stroke="black" stroke-miterlimit="10"/>
<path d="M173.176 58.2631C174.28 58.9423 175.129 59.9612 175.723 61.1498" stroke="black" stroke-miterlimit="10"/>
<path d="M166.979 65.3953C167.658 67.433 169.016 69.5556 171.224 69.8952C172.752 70.1499 174.45 69.4707 175.044 67.9424" stroke="black" stroke-miterlimit="10"/>
<path d="M155.43 51.6406C155.515 48.3294 155.854 45.0181 156.958 41.8767C158.062 38.7352 159.845 35.8485 162.477 33.8957C163.921 32.792 165.619 32.0278 167.317 31.3486C168.76 30.7543 170.204 30.2449 171.732 29.9052C177.336 28.7166 183.195 30.4996 188.459 32.792" fill="#FFC36C"/>
<path d="M190.922 33.2166C189.564 31.8581 187.696 31.0091 185.828 30.4996C184.724 30.2449 183.535 30.0751 182.431 30.0751C181.837 30.0751 181.243 30.16 180.648 30.3298C176.573 31.094 172.922 33.3015 169.355 35.4241C164.601 38.3108 159.931 41.5371 156.449 45.8672C155.176 47.3955 154.072 49.2634 153.987 51.2162C153.902 52.3199 154.157 53.4237 154.581 54.4425C155.176 56.2255 156.619 58.7726 157.808 60.216C168.167 50.4521 179.884 42.8107 193.384 38.2259C193.3 36.358 192.366 34.4901 190.922 33.2166Z" fill="#FFC36C"/>
<path d="M156.109 46.3767C156.109 46.3767 164.855 34.1505 181.157 30.0751" stroke="black" stroke-miterlimit="10"/>
<path d="M160.695 47.735C161.969 49.9425 163.327 52.2349 165.195 53.933" stroke="black" stroke-miterlimit="10"/>
<path d="M170.885 38.5657C172.243 41.3675 173.856 43.9995 175.809 46.4617" stroke="black" stroke-miterlimit="10"/>
<path d="M181.752 32.7071C183.959 34.9995 185.912 37.6315 187.441 40.5182" stroke="black" stroke-miterlimit="10"/>
<path d="M185.574 31.4335C187.527 33.8108 189.225 36.6126 190.414 39.4145" stroke="black" stroke-miterlimit="10"/>
<path d="M155.516 49.1785C156.11 52.7445 158.233 55.7161 160.865 57.8387" stroke="black" stroke-miterlimit="10"/>
<path d="M149.572 74.8195C154.582 76.6874 159.591 78.5553 164.007 81.5269C168.422 84.4986 172.922 88.574 174.45 93.6682" stroke="black" stroke-miterlimit="10"/>
<path d="M177.846 92.0548C180.138 90.9511 181.921 88.9983 182.94 86.7059" stroke="black" stroke-miterlimit="10"/>
<path d="M134.543 76.857C136.835 90.0171 154.242 87.5549 162.393 91.6303" stroke="black" stroke-miterlimit="10"/>
<path d="M191.602 86.4512C191.262 88.2342 190.668 90.1021 189.479 91.4605C187.696 93.5831 184.895 94.4322 182.178 95.1963" stroke="black" stroke-miterlimit="10"/>
<path d="M184.555 92.0549C185.743 100.375 187.017 109.63 186.592 118.035" stroke="black" stroke-miterlimit="10"/>
<path d="M166.129 90.102C167.402 93.583 166.808 102.922 166.638 111.328" stroke="black" stroke-miterlimit="10"/>
<path d="M250.357 331.739H61.3512C58.3794 331.739 56.002 329.361 56.002 326.39V198.44H255.706V326.39C255.706 329.361 253.329 331.739 250.357 331.739Z" fill="#D4BCDD"/>
<path d="M250.357 181.204C253.329 181.204 255.707 183.581 255.707 186.553V326.475C255.707 329.446 253.329 331.823 250.357 331.823H61.3514C58.3796 331.823 56.0021 329.446 56.0021 326.475V186.468C56.0021 183.496 58.3796 181.119 61.3514 181.119H250.357M250.357 179.93H61.3514C57.7003 179.93 54.7285 182.902 54.7285 186.553V326.475C54.7285 330.125 57.7003 333.097 61.3514 333.097H250.357C254.008 333.097 256.98 330.125 256.98 326.475V186.468C256.98 182.817 254.008 179.93 250.357 179.93Z" fill="#735D9D"/>
<path d="M71.2001 190.289C71.2001 192.326 69.502 194.024 67.4643 194.024C65.4266 194.024 63.7285 192.326 63.7285 190.289C63.7285 188.251 65.4266 186.553 67.4643 186.553C69.502 186.553 71.2001 188.251 71.2001 190.289Z" stroke="#735D9D" stroke-width="1.5" stroke-miterlimit="10"/>
<path d="M81.8139 194.024C83.8771 194.024 85.5497 192.352 85.5497 190.289C85.5497 188.225 83.8771 186.553 81.8139 186.553C79.7507 186.553 78.0781 188.225 78.0781 190.289C78.0781 192.352 79.7507 194.024 81.8139 194.024Z" stroke="#735D9D" stroke-width="1.5" stroke-miterlimit="10"/>
<path d="M56.002 198.44H255.706" stroke="#735D9D" stroke-width="1.5" stroke-miterlimit="10"/>
<path d="M236.517 331.738C233.8 325.116 230.148 318.918 225.733 313.399C223.016 310.003 219.79 306.777 215.799 305.333C211.808 303.89 206.799 304.484 203.997 307.88C201.874 310.428 201.534 314.078 201.195 317.39C194.572 310.258 187.864 303.126 179.798 297.862C171.732 292.598 161.967 288.862 152.542 290.9C142.183 293.192 142.183 306.267 142.183 306.267C142.183 306.267 135.815 297.352 135.221 296.503C130.976 290.305 126.136 284.617 121.041 279.098C116.032 273.749 111.277 268.061 105.588 263.391C99.984 258.721 90.8139 252.778 83.1722 255.58C79.2664 257.023 78.1626 260.504 79.0117 264.41C79.8607 268.06 80.2853 271.796 81.3891 275.447C75.021 268.315 67.7189 261.778 59.3129 257.363C53.2844 254.136 40.5482 248.787 34.265 253.966C32.4819 255.495 31.6328 257.957 31.5479 260.334C31.3781 275.192 41.9916 290.985 50.4825 301.852C59.228 312.975 69.8416 322.908 80.7947 331.738H236.517Z" fill="#FFDD99"/>
<path d="M198.139 265.259C197.035 271.542 197.375 277.995 197.375 284.362C197.375 290.73 197.884 294.89 195.592 300.749C193.469 306.013 189.139 307.796 186.846 312.89C185.657 315.522 181.327 331.739 181.327 331.739H122.316C122.316 331.739 120.703 306.268 129.788 284.532C138.873 262.797 150.251 258.891 150.251 258.891L183.79 250.146L198.139 265.259Z" fill="#735D9D"/>
<path d="M275.405 227.307C277.188 225.184 279.565 223.911 281.688 222.128C283.641 220.515 285.085 218.307 286.698 216.439C288.651 214.062 290.179 211.43 291.877 208.883C293.66 206.166 296.038 203.958 298.33 201.666C298.67 201.326 299.009 200.987 299.179 200.647C299.519 199.883 299.094 198.949 298.245 198.694C296.547 198.27 294.764 198.694 293.151 199.289C292.217 199.628 288.905 200.817 288.736 198.949C288.481 196.911 290.264 193.855 290.943 191.902C291.792 189.355 292.726 186.893 293.406 184.346C294.085 181.883 293.915 177.214 292.641 177.129C291.368 177.044 292.302 177.808 291.962 177.978C292.472 177.299 291.538 175.6 290.773 175.091C290.009 174.582 288.99 176.195 288.736 177.044C288.99 176.195 288.226 174.836 287.632 174.751C286.698 174.667 286.019 175.516 285.509 176.195C285 176.874 284.49 177.638 283.726 178.148C283.726 177.553 283.641 176.959 283.471 176.365C282.877 176.025 282.198 176.619 281.773 177.129C273.112 187.402 267.169 200.138 257.574 209.987" fill="#E27769"/>
<path d="M288.99 197.506C288.99 200.053 288.99 202.6 288.82 205.062" stroke="black" stroke-miterlimit="10"/>
<path d="M291.706 177.383C290.942 179.761 289.499 181.799 288.395 184.006C286.612 187.572 285.084 191.138 283.471 194.704" stroke="black" stroke-miterlimit="10"/>
<path d="M288.65 176.874C288.14 177.978 287.546 179.082 286.867 180.1C286.102 181.204 285.338 182.223 284.574 183.327C282.367 186.383 280.329 189.61 278.631 193.006" stroke="black" stroke-miterlimit="10"/>
<path d="M283.386 178.572C282.792 179.846 281.858 180.865 280.924 181.884C278.122 185.195 275.66 188.761 273.707 192.581" stroke="black" stroke-miterlimit="10"/>
<path d="M166.893 253.542C177.421 249.127 184.384 244.457 194.827 239.788C204.252 235.543 217.498 232.061 226.753 227.562C239.574 221.279 251.631 214.401 262.245 204.892L281.434 225.099C281.434 225.099 254.348 252.778 244.838 258.127C221.998 271.117 213.762 273.579 189.988 285.975" fill="#735D9D"/>
<path d="M197.119 282.494C197.289 277.74 198.308 272.985 200.261 268.655" stroke="black" stroke-miterlimit="10"/>
<path d="M255.791 210.241L274.811 231.552" stroke="black" stroke-miterlimit="10"/>
<path d="M163.836 312.126C171.902 312.296 179.884 313.57 186.846 317.815C190.158 319.853 192.026 322.569 192.959 326.39C193.724 329.616 193.978 333.013 193.724 336.239C193.724 336.579 193.469 336.833 193.214 336.918C192.875 337.003 192.11 336.663 192.11 336.663C192.11 336.663 192.79 339.89 192.11 340.569C191.601 341.079 190.667 340.399 190.327 339.975C189.903 339.55 189.308 338.362 189.308 338.362C189.308 338.362 189.818 340.229 189.393 340.569C188.799 341.079 187.016 339.805 186.676 338.616C186.422 339.296 185.997 339.975 185.403 339.805C183.365 339.296 181.837 336.409 180.138 335.05C177.931 333.182 174.959 333.013 172.242 333.098C170.968 333.098 169.695 333.182 168.421 333.013C167.147 332.843 165.959 332.418 164.685 332.164C162.308 331.654 159.93 331.484 157.553 331.315" fill="#E27769"/>
<path d="M178.695 328.853C180.903 329.787 183.28 330.806 184.469 332.674C184.808 333.268 185.063 333.862 185.318 334.456C185.827 335.815 186.167 337.089 186.506 338.447" stroke="black" stroke-miterlimit="10"/>
<path d="M181.836 324.862C183.109 325.626 184.298 326.475 185.402 327.579C186.506 328.598 187.355 329.871 187.864 331.23C188.119 331.994 188.289 332.843 188.458 333.692C188.713 335.39 189.053 337.173 189.307 338.871" stroke="black" stroke-miterlimit="10"/>
<path d="M186.166 322.145C188.289 323.673 189.902 325.881 190.836 328.258C191.685 330.381 191.939 332.758 192.194 335.05C192.279 335.814 192.364 336.494 192.449 337.258" stroke="black" stroke-miterlimit="10"/>
<path d="M154.921 255.07C154.921 255.07 138.279 257.533 131.911 261.184C121.892 266.957 117.561 275.702 111.193 290.56C104.825 305.418 102.278 311.956 102.193 316.88C102.108 324.097 105.335 331.739 118.665 331.739C142.44 331.739 161.204 331.739 161.204 331.739L169.78 311.701L136.751 306.522L145.836 285.126" fill="#735D9D"/>
<path d="M169.693 311.701L136.664 306.522L145.749 285.126" stroke="black" stroke-miterlimit="10"/>
<path d="M124.863 309.579C125.118 309.579 130.127 306.438 136.58 306.523" stroke="black" stroke-miterlimit="10"/>
<path d="M160.61 310.258L151.525 331.739" stroke="black" stroke-miterlimit="10"/>
<path d="M180.732 260.25C181.157 257.957 181.157 255.58 180.817 253.118" stroke="black" stroke-miterlimit="10"/>
<path d="M145.496 259.655C147.364 264.24 151.355 268.061 155.855 270.014C161.459 272.476 169.016 272.9 174.365 269.674C176.827 268.146 178.525 266.193 179.629 263.9" stroke="black" stroke-miterlimit="10"/>
<path d="M239.404 268.23C249.339 263.136 258.424 256.429 266.15 248.363" stroke="black" stroke-miterlimit="10"/>
<path d="M258 263.391C262.84 259.655 267.339 255.58 271.5 251.08" stroke="black" stroke-miterlimit="10"/>
<path d="M98.5421 304.4C96.4195 311.277 95.6554 318.494 96.3346 325.711" stroke="black" stroke-miterlimit="10"/>
<path d="M91.9184 305.418C90.56 309.239 89.7958 313.315 89.7109 317.39" stroke="black" stroke-miterlimit="10"/>
<path d="M160.526 234.609L151.441 240.722L153.394 247.259L150.677 257.108C150.507 257.702 150.592 258.382 150.931 258.976C152.46 261.184 157.045 266.702 166.215 266.702C175.894 266.702 175.725 260.25 175.725 260.25L177.508 246.58" fill="#E27769"/>
<path d="M178.866 233.844C176.403 229.175 174.96 226.288 172.328 223.062C170.12 220.345 166.384 216.524 162.903 215.76C158.403 214.741 154.157 218.052 150.337 220.345C144.053 224.25 144.138 232.571 146.261 238.854C147.874 243.608 151.271 245.476 155.516 248.363C161.035 252.184 173.177 253.882 178.356 249.721C182.177 246.58 181.498 238.769 178.866 233.844Z" fill="#E27769"/>
<path d="M165.451 233.42C165.705 234.184 165.536 234.948 165.026 235.118C164.432 235.373 163.753 234.948 163.498 234.184C163.243 233.42 163.413 232.656 163.922 232.486C164.432 232.316 165.111 232.656 165.451 233.42Z" fill="black"/>
<path d="M174.365 228.496C174.62 229.26 174.45 230.024 173.941 230.194C173.346 230.448 172.667 230.024 172.412 229.26C172.073 228.496 172.328 227.731 172.837 227.562C173.346 227.392 174.026 227.731 174.365 228.496Z" fill="black"/>
<path d="M169.525 231.637C170.544 232.486 171.733 233.165 172.922 233.675C173.686 234.014 176.148 234.693 175.638 235.882C175.299 236.646 173.855 237.92 173.855 237.92" stroke="black" stroke-miterlimit="10"/>
<path d="M151.355 254.561C151.355 254.561 152.459 251.674 152.798 250.57C153.223 248.787 151.779 248.703 151.27 247.174C151.015 246.41 151.185 245.391 151.44 244.542C151.864 242.844 152.713 240.891 151.949 239.193C151.44 238.09 150.336 237.41 149.487 236.561C148.638 235.712 147.958 234.439 148.468 233.335C149.062 232.061 150.845 231.976 151.949 231.043C153.053 230.109 153.308 228.58 153.223 227.137C153.138 225.694 152.798 224.25 153.053 222.892C153.138 222.637 153.138 222.382 153.308 222.213C153.817 221.618 154.751 222.213 155.43 222.552C156.619 223.231 158.147 223.146 159.421 222.637C160.1 222.382 160.695 221.873 160.864 221.279C161.034 220.854 161.034 220.43 161.119 220.005C161.204 219.581 161.374 219.156 161.714 218.901C161.968 218.731 162.308 218.731 162.648 218.731C163.666 218.816 164.6 219.156 165.365 219.665C166.044 220.175 166.384 220.514 167.233 220.514C167.997 220.514 168.846 220.26 169.61 220.43C170.544 220.684 171.223 221.618 171.818 222.382C173.346 224.675 174.959 226.967 176.488 229.26C177.252 228.156 178.101 226.967 178.441 225.694C178.865 224.335 178.695 222.807 177.846 221.788C176.997 220.769 175.554 220.26 174.874 219.156C174.11 217.882 174.195 216.099 174.11 214.741C174.025 213.213 173.516 211.684 172.667 210.411C171.818 209.137 170.374 208.203 168.931 208.288C168.082 208.373 167.233 208.798 166.384 208.713C165.874 208.713 165.365 208.543 164.855 208.288C162.563 207.269 160.61 205.741 158.317 204.722C156.025 203.704 153.138 203.449 151.185 204.977C150.166 205.741 149.487 206.93 148.383 207.609C145.241 209.477 140.656 205.911 137.6 208.034C135.647 209.392 135.562 212.364 133.949 214.062C131.826 216.269 128.005 215.675 125.628 217.543C123.25 219.411 123.25 223.231 124.694 225.948C125.373 227.307 126.477 228.665 126.137 230.194C125.967 231.127 125.288 231.807 124.694 232.571C123.844 233.675 123.165 234.863 122.995 236.222C122.826 237.58 123.25 239.024 124.269 239.873C124.948 240.382 125.882 240.637 126.392 241.401C126.901 242.165 127.071 243.608 127.241 244.542C127.326 245.391 127.326 246.155 127.58 247.004C128.26 249.127 130.637 250.401 132.845 250.401C133.864 250.401 135.052 250.231 135.901 250.825C136.581 251.335 136.92 252.184 137.345 252.948C138.703 255.325 142.1 256.344 144.647 255.155C145.581 254.646 146.43 253.967 147.534 253.882C148.383 253.967 150.336 254.731 151.355 254.561Z" fill="#2C221D"/>
<path d="M165.959 251.844C168.761 252.523 174.11 252.693 178.1 250.146" stroke="black" stroke-miterlimit="10"/>
<path d="M158.402 233.165C158.402 230.363 160.27 227.646 163.327 228.156" stroke="black" stroke-miterlimit="10"/>
<path d="M168.846 226.203C168.761 225.439 169.355 224.505 170.289 223.995C171.223 223.571 172.327 223.571 172.921 224.08" stroke="black" stroke-miterlimit="10"/>
<path d="M156.28 241.316C154.666 239.363 150.761 239.872 149.487 241.91C146.431 246.75 153.817 253.287 158.402 250.91C159.676 250.231 160.949 248.533 160.355 246.92" fill="#E27769"/>
<path d="M151.779 245.561L158.062 245.986" stroke="black" stroke-miterlimit="10"/>
<path d="M152.459 240.297C153.733 240.127 155.176 240.382 156.365 241.061" stroke="black" stroke-miterlimit="10"/>
<path d="M151.949 250.146C153.817 251.334 156.279 252.183 158.232 251.08C159.591 250.316 160.609 248.702 160.1 247.004" stroke="black" stroke-miterlimit="10"/>
<path d="M170.544 238.344C170.12 239.872 170.629 241.825 172.327 242.165C173.601 242.42 175.044 241.571 175.469 240.382" stroke="black" stroke-miterlimit="10"/>
<path d="M516.883 152.506H327.623C324.651 152.506 322.273 150.129 322.273 147.157V53.5931H522.148V147.157C522.233 150.129 519.855 152.506 516.883 152.506Z" fill="#D5D8BC"/>
<path d="M516.883 39.4143C519.855 39.4143 522.233 41.7916 522.233 44.7632V147.157C522.233 150.129 519.855 152.506 516.883 152.506H327.623C324.651 152.506 322.274 150.129 322.274 147.157V44.7632C322.274 41.7916 324.651 39.4143 327.623 39.4143H516.883ZM516.883 38.1407H327.623C323.972 38.1407 321 41.1123 321 44.7632V147.157C321 150.808 323.972 153.78 327.623 153.78H516.883C520.535 153.78 523.506 150.808 523.506 147.157V44.7632C523.506 41.1123 520.535 38.1407 516.883 38.1407Z" fill="#B5AE6B"/>
<path d="M331.783 43.9141C333.481 43.9141 334.84 45.2725 334.84 46.9706C334.84 48.6687 333.481 50.0272 331.783 50.0272C330.085 50.0272 328.727 48.6687 328.727 46.9706C328.727 45.2725 330.085 43.9141 331.783 43.9141ZM331.783 42.6405C329.406 42.6405 327.453 44.5933 327.453 46.9706C327.453 49.3479 329.406 51.3007 331.783 51.3007C334.161 51.3007 336.113 49.3479 336.113 46.9706C336.028 44.5933 334.161 42.6405 331.783 42.6405Z" fill="#B5AE6B"/>
<path d="M343.584 43.9141C345.282 43.9141 346.641 45.2725 346.641 46.9706C346.641 48.6687 345.282 50.0272 343.584 50.0272C341.886 50.0272 340.527 48.6687 340.527 46.9706C340.527 45.2725 341.886 43.9141 343.584 43.9141ZM343.584 42.6405C341.207 42.6405 339.254 44.5933 339.254 46.9706C339.254 49.3479 341.207 51.3007 343.584 51.3007C345.961 51.3007 347.914 49.3479 347.914 46.9706C347.914 44.5933 345.961 42.6405 343.584 42.6405Z" fill="#B5AE6B"/>
<path d="M322.273 53.5931H522.233" stroke="#B5AE6B" stroke-width="1.5" stroke-miterlimit="10"/>
<path d="M494.893 134.846C491.157 128.563 487.166 122.111 481.053 118.29C474.94 114.469 465.939 114.299 461.354 119.988C457.279 124.997 458.043 132.299 458.977 138.667C454.477 132.893 449.128 127.714 443.269 123.384C438.769 120.073 433.759 117.101 428.24 116.082C422.551 114.979 416.013 116.167 411.258 119.733C404.805 124.573 404.975 132.214 405.57 139.516C397.758 124.743 389.097 110.139 377.125 98.3375C373.984 95.281 370.418 92.649 366.172 91.4603C363.795 90.7811 361.078 90.6962 358.87 91.8849C355.559 93.8376 354.71 98.0828 354.625 101.904C354.54 106.488 355.049 111.073 356.153 115.488C354.03 113.281 351.313 111.583 348.256 110.988C341.294 109.63 334.501 114.894 334.077 122.026C333.652 129.412 338.152 136.544 341.634 142.742C342.907 145.12 344.266 147.497 345.794 149.704C346.049 150.129 347.153 152.336 347.832 152.336H504.658C501.516 146.903 498.205 140.365 494.893 134.846Z" fill="#B5AE6B"/>
<path d="M441.91 80.2529C440.636 75.3285 439.363 70.4889 438.089 65.5645C438.004 65.14 437.58 63.6966 436.985 61.8287C436.476 64.3759 435.457 66.8381 433.929 68.9607C431.636 72.187 428.325 74.6492 424.589 75.9228L424.334 75.1587C427.9 73.97 431.127 71.5927 433.249 68.4512C435.032 65.9041 436.051 63.0174 436.391 59.9609C435.287 56.31 433.929 51.895 433.419 50.4516L429.513 53.5931L408.541 68.7909C409.22 70.4889 409.9 72.187 410.579 73.97C413.381 76.0926 417.117 77.0265 420.598 76.2624L420.768 77.1114C419.919 77.2812 418.985 77.3662 418.051 77.3662C415.588 77.3662 413.211 76.6869 411.088 75.4134C416.862 89.847 423.485 107.337 428.41 120.582C432.146 130.771 435.457 141.129 439.108 151.317C439.278 151.657 439.363 152.082 439.533 152.421H465.26C460.42 140.704 455.92 128.733 451.929 116.677C448.023 104.79 445.136 92.479 441.91 80.2529Z" fill="white"/>
<path d="M418.22 77.3663C419.154 77.3663 420.003 77.2814 420.937 77.1116L420.767 76.2626C417.371 77.0267 413.55 76.1777 410.748 73.9702C410.918 74.4796 411.088 74.9041 411.342 75.4135C413.295 76.6871 415.757 77.3663 418.22 77.3663Z" fill="black"/>
<path d="M424.332 75.1588L424.587 75.923C428.323 74.6494 431.634 72.1872 433.926 68.9608C435.454 66.8382 436.473 64.376 436.983 61.8289C436.813 61.2346 436.643 60.6403 436.388 59.961C436.049 63.0176 435.03 65.9892 433.247 68.4514C431.039 71.508 427.898 73.8853 424.332 75.1588Z" fill="black"/>
<path d="M494.297 108.101C485.976 92.2244 462.457 45.1877 453.032 39.4142H449.55C441.654 42.8104 433.248 49.9423 433.248 49.9423C433.248 49.9423 433.333 50.1121 433.418 50.4517C433.842 51.8951 435.201 56.2252 436.39 59.9609C436.559 60.6402 436.814 61.2345 436.984 61.8288C437.578 63.6967 438.003 65.1401 438.088 65.5646C439.361 70.489 440.635 75.4134 441.909 80.253C445.135 92.4791 448.022 104.79 452.098 116.762C456.173 128.818 460.589 140.705 465.428 152.506H516.798C514.251 147.327 504.231 126.95 494.297 108.101ZM451.249 108.017C450.739 86.451 449.381 64.5458 447.258 43.0651L448.107 42.9802C450.315 64.4608 451.673 86.3661 452.098 108.017H451.249Z" fill="#4C4139"/>
<path d="M428.578 120.667C423.653 107.422 417.03 89.8469 411.256 75.4982C411.087 74.9888 410.917 74.5642 410.662 74.0548C409.983 72.2718 409.219 70.5738 408.624 68.8757C408.539 68.7059 408.454 68.5361 408.37 68.3663C408.37 68.3663 401.407 72.3567 397.247 74.9039C400.218 79.4038 402.935 83.649 405.568 87.8092C412.53 98.592 419.068 108.781 427.049 120.327L426.37 120.837C418.389 109.29 411.766 99.1015 404.803 88.2338C402.086 84.0735 399.369 79.8283 396.397 75.3284L396.822 75.0737C395.803 75.668 394.954 76.2623 394.445 76.517C392.152 78.1302 392.662 81.866 392.662 81.866C397.331 99.4411 407.011 128.478 415.247 152.506H439.531C439.361 152.166 439.276 151.742 439.106 151.402C435.625 141.214 432.314 130.855 428.578 120.667Z" fill="#4C4139"/>
<path d="M404.888 88.2339C411.851 99.0166 418.389 109.29 426.455 120.837L427.134 120.328C419.153 108.781 412.615 98.5921 405.653 87.8093C402.936 83.649 400.218 79.4038 397.332 74.9039L397.077 75.0737L396.652 75.3285C399.454 79.8284 402.256 84.0736 404.888 88.2339Z" fill="black"/>
<path d="M448.107 42.9802L447.258 43.0651C449.465 64.5458 450.824 86.3661 451.248 108.017H452.097C451.673 86.3661 450.314 64.5458 448.107 42.9802Z" fill="black"/>
<path d="M337.727 158.279C335.52 159.977 333.227 161.591 330.935 163.119C328.727 164.562 326.265 165.836 324.057 167.364C323.548 167.704 323.038 168.128 322.529 168.553C320.661 170.081 318.793 171.609 317.349 173.562C317.179 173.817 316.925 174.072 316.67 174.241C316.415 174.411 316.076 174.496 315.736 174.411C315.396 174.241 315.311 173.902 315.227 173.647C314.887 172.289 315.227 170.93 315.736 169.657C316.076 168.807 316.5 168.043 316.84 167.279C317.179 166.6 317.519 165.921 317.519 165.157C311.576 166.6 306.396 170.166 300.792 172.628C299.603 173.138 297.311 173.053 297.056 172.034C296.717 170.76 305.038 166.43 309.028 163.289C306.226 164.223 303.339 165.157 300.707 166.515C298.924 167.449 296.971 168.213 295.018 168.553C293.915 168.723 291.367 168.807 292.132 166.94C292.386 166.345 292.896 166.006 293.405 165.666C297.226 162.949 301.641 161.336 305.547 158.789C301.387 159.723 297.311 161.93 293.066 161.421C292.641 161.336 292.216 161.251 291.962 160.996C291.537 160.572 291.452 159.977 291.877 159.468C292.301 158.959 292.896 158.704 293.49 158.449C297.82 156.666 302.321 154.629 306.566 152.846C304.358 153.1 302.236 153.78 300.113 154.374C297.99 154.883 295.698 155.223 293.575 154.544C292.896 154.374 292.131 153.78 292.386 153.1C292.556 152.761 292.811 152.591 293.15 152.421C298.415 149.874 303.679 147.412 308.943 144.865C310.387 144.185 311.915 143.421 313.444 142.827C316.67 141.384 319.897 139.77 323.123 138.412C326.604 136.969 330.001 135.525 333.482 134.082" fill="#D16159"/>
<path d="M317.52 164.987C319.133 164.562 320.746 164.223 322.359 163.883" stroke="black" stroke-miterlimit="10"/>
<path d="M308.859 163.034C311.152 161.93 313.444 160.996 315.737 160.147" stroke="black" stroke-miterlimit="10"/>
<path d="M305.633 158.534C307.501 157.77 309.284 156.921 311.152 156.157" stroke="black" stroke-miterlimit="10"/>
<path d="M304.529 153.44C305.888 152.931 307.161 152.336 308.435 151.657" stroke="black" stroke-miterlimit="10"/>
<path d="M394.614 76.517C390.708 79.149 386.803 82.0357 384.34 84.7527C380.35 89.0828 356.83 117.526 356.83 117.526C356.83 117.526 332.801 132.044 318.961 140.025L334.075 164.562C334.075 164.562 362.009 154.544 376.274 144.525C389.265 135.44 414.058 105.554 414.058 105.554" fill="#4C4139"/>
<path d="M404.465 117.526L396.908 94.0073" stroke="black" stroke-miterlimit="10"/>
<path d="M331.699 132.639L348.425 158.619" stroke="black" stroke-miterlimit="10"/>
<path d="M329.576 157.431L343.5 150.978" stroke="black" stroke-miterlimit="10"/>
<path d="M338.917 150.638C339.002 151.233 338.492 151.827 337.898 151.912C337.304 151.997 336.709 151.487 336.625 150.893C336.54 150.299 337.049 149.704 337.643 149.619C338.238 149.535 338.832 150.044 338.917 150.638Z" stroke="black" stroke-miterlimit="10"/>
<path d="M332.124 153.78C332.781 153.78 333.313 153.248 333.313 152.591C333.313 151.935 332.781 151.402 332.124 151.402C331.468 151.402 330.936 151.935 330.936 152.591C330.936 153.248 331.468 153.78 332.124 153.78Z" stroke="black" stroke-miterlimit="10"/>
<path d="M356.661 117.865C356.661 117.695 356.661 117.526 356.576 117.356C359.803 116.422 362.859 114.979 365.576 113.111" stroke="black" stroke-miterlimit="10"/>
<path d="M367.953 90.1867C372.538 84.7528 378.057 80.0831 384.255 76.6021" stroke="black" stroke-miterlimit="10"/>
<path d="M371.691 77.7057C376.022 74.4794 380.691 71.8474 385.701 69.8097" stroke="black" stroke-miterlimit="10"/>
<path d="M417.712 32.9613L421.108 42.8951L433.08 54.5269C433.08 54.5269 433.42 61.4041 426.627 68.621C419.92 75.8378 412.618 70.9983 412.618 70.9983L403.787 58.2627" fill="#D16159"/>
<path d="M389.606 58.9421C388.248 54.5271 386.465 45.0179 386.634 41.367C386.719 38.3105 387.653 35.2539 389.691 32.8766C392.323 29.8201 398.437 30.9238 402.342 30.4993C408.795 29.905 412.786 37.4614 414.569 42.9802C415.928 47.1405 416.607 51.4706 415.164 55.8007C412.871 62.7628 405.399 69.8098 397.587 67.857C393.342 66.8382 390.965 63.1873 389.606 58.9421Z" fill="#D16159"/>
<path d="M423.739 31.7728C422.72 30.6691 421.277 29.82 420.853 28.3767C420.598 27.6125 420.173 25.2352 419.918 24.3862C418.475 19.9712 414.739 18.4429 410.579 19.207C410.154 14.9618 405.654 14.5373 401.918 14.5373C400.39 14.5373 398.776 14.3675 397.418 13.6034C395.974 12.8392 394.616 11.7355 392.918 11.5657C391.389 11.3959 389.861 11.9053 388.587 12.7543C384.172 15.6411 382.983 21.2447 377.634 22.8579C375.936 23.3673 374.153 23.5371 372.709 24.6409C371.606 25.4899 370.841 26.6786 370.672 28.037C370.417 29.9898 371.775 31.1785 373.049 32.3671C374.577 33.7256 375.511 35.5086 375.342 37.6312C375.257 38.9047 374.917 40.1783 374.747 41.3669C374.153 44.9329 375.342 48.3291 378.313 50.5366C378.908 50.9611 379.842 51.3856 382.134 51.895C383.748 52.2346 387.993 51.6403 387.993 51.6403C387.993 51.6403 386.974 45.5272 386.974 43.1499C386.974 40.8575 387.653 38.8198 389.012 36.9519C390.116 35.4237 392.578 34.9142 394.446 34.9142C397.163 34.9992 399.795 36.5274 402.512 36.2727C403.616 36.1029 404.72 35.6784 405.654 34.9142C409.305 37.2916 413.126 40.7726 413.975 45.0178C414.06 45.2725 414.569 47.7347 414.399 47.8196C417.541 47.1404 421.532 46.8857 422.89 43.4895C423.4 42.3009 423.145 41.0273 423.485 39.8387C423.824 38.8198 424.673 38.1406 425.098 37.1217C425.862 35.4237 425.098 33.2162 423.739 31.7728Z" fill="#2C221D"/>
<path d="M410.662 44.678C410.832 41.9611 414.568 39.9234 417.03 40.9422C422.803 43.2346 420.426 53.6778 414.907 54.4419C413.379 54.6967 411.172 53.9325 410.662 52.2344" fill="#D16159"/>
<path d="M417.201 45.612L412.021 49.9421" stroke="black" stroke-miterlimit="10"/>
<path d="M413.38 41.3667C412.106 42.0459 411.087 43.1497 410.408 44.4232" stroke="black" stroke-miterlimit="10"/>
<path d="M420.002 49.6874C419.153 51.8949 417.539 54.1873 415.077 54.5269C413.379 54.7816 411.426 53.9326 410.832 52.1496" stroke="black" stroke-miterlimit="10"/>
<path d="M408.709 65.3949C408.709 65.3949 411.511 63.6119 413.379 59.7063" stroke="black" stroke-miterlimit="10"/>
<path d="M394.275 48.4139C394.53 50.8761 394.785 53.3383 395.124 55.7156C395.124 56.0553 395.209 56.3949 395.464 56.6496C396.398 57.5835 398.521 57.159 399.455 56.5647" stroke="black" stroke-miterlimit="10"/>
<path d="M401.749 57.5838L397.504 60.046C397.504 60.046 399.117 63.1874 400.815 62.5931C403.787 61.4045 401.749 57.5838 401.749 57.5838Z" fill="white"/>
<path d="M396.4 43.1499C396.825 42.3009 397.759 41.7066 398.693 41.367C400.306 40.8575 402.089 41.1122 403.532 42.0462" stroke="black" stroke-miterlimit="10"/>
<path d="M386.549 46.6309C386.719 45.697 387.228 45.0178 387.822 44.5932C388.841 43.914 390.2 43.914 391.388 44.5932" stroke="black" stroke-miterlimit="10"/>
<path d="M402.003 46.7159C402.257 47.6499 401.833 48.4989 401.154 48.6687C400.474 48.8385 399.71 48.2442 399.456 47.3102C399.201 46.3763 399.625 45.5273 400.305 45.3575C401.069 45.2726 401.833 45.8669 402.003 46.7159Z" fill="black"/>
<path d="M392.323 49.6876C392.578 50.6215 392.153 51.4706 391.474 51.6404C390.795 51.8102 390.031 51.2159 389.776 50.2819C389.521 49.348 389.946 48.4989 390.625 48.3291C391.304 48.1593 392.068 48.7537 392.323 49.6876Z" fill="black"/>
<path d="M389.691 36.2728C387.908 37.2917 387.059 39.4143 385.87 41.0275C383.917 43.7444 380.436 45.2727 377.125 44.933" stroke="#635149" stroke-miterlimit="10"/>
<path d="M405.908 34.8295C407.521 33.3012 408.71 31.2635 409.219 29.1409" stroke="#635149" stroke-miterlimit="10"/>
<path d="M560.101 259.57H417.795C414.823 259.57 412.445 257.193 412.445 254.221V153.101H565.365V254.221C565.45 257.193 563.073 259.57 560.101 259.57Z" fill="#F9D4BB"/>
<path d="M560.101 138.922C563.073 138.922 565.45 141.299 565.45 144.271V254.221C565.45 257.193 563.073 259.57 560.101 259.57H417.795C414.823 259.57 412.446 257.193 412.446 254.221V144.271C412.446 141.299 414.823 138.922 417.795 138.922H560.101ZM560.101 137.648H417.795C414.144 137.648 411.172 140.62 411.172 144.271V254.221C411.172 257.872 414.144 260.844 417.795 260.844H560.101C563.752 260.844 566.724 257.872 566.724 254.221V144.271C566.724 140.62 563.752 137.648 560.101 137.648Z" fill="#EF9748"/>
<path d="M425.011 146.478C425.011 148.176 423.653 149.535 421.955 149.535C420.257 149.535 418.898 148.176 418.898 146.478C418.898 144.78 420.257 143.422 421.955 143.422C423.653 143.422 425.011 144.78 425.011 146.478Z" stroke="white" stroke-width="1.5" stroke-miterlimit="10"/>
<path d="M436.814 146.478C436.814 148.176 435.456 149.535 433.758 149.535C432.06 149.535 430.701 148.176 430.701 146.478C430.701 144.78 432.06 143.422 433.758 143.422C435.456 143.422 436.814 144.78 436.814 146.478Z" stroke="white" stroke-width="1.5" stroke-miterlimit="10"/>
<path d="M412.445 153.101H565.45" stroke="#EF9748" stroke-width="1.5" stroke-miterlimit="10"/>
<path d="M525.967 218.562C522.485 217.967 521.466 227.392 523.165 230.533C518.58 223.911 512.721 213.807 508.136 207.269C502.956 199.883 496.758 190.628 487.418 188.251C479.012 186.044 474.597 193.43 474.512 200.902C474.427 208.034 475.106 215.25 476.465 222.297C477.908 229.939 479.776 238.684 483.937 245.391C479.522 238.259 472.389 235.882 464.493 236.561C460.842 236.901 456.936 238.09 454.644 240.976C450.908 245.561 452.351 253.967 453.879 259.655C457.361 259.655 460.842 259.655 464.238 259.655C482.663 259.655 555.684 259.655 555.684 259.655C555.684 259.655 537.344 220.599 525.967 218.562Z" fill="#EF9748"/>
<path d="M420.089 205.317C404.89 205.572 389.861 202.345 375.257 197.93C360.738 193.515 334.246 183.751 334.246 183.751L326.689 206.59C326.689 206.59 365.832 231.382 417.966 235.627" fill="#E27769"/>
<path d="M452.607 211.515C442.503 202.939 420.512 203.534 414.229 203.788C407.946 204.043 396.738 202.175 396.738 202.175L392.662 236.561C392.662 236.561 415.927 240.467 428.918 241.401" fill="#2C221D"/>
<path d="M424.08 219.75C425.693 224.25 424.929 230.873 424.929 235.627C424.929 239.873 426.458 242.25 427.052 246.41C427.816 251.42 430.618 254.986 433.675 259.57H498.205L494.809 223.826L486.063 211.09L467.553 206.166L425.693 217.203" fill="#2C221D"/>
<path d="M444.371 211.09C443.691 213.383 443.267 215.93 443.691 218.222C444.116 220.939 445.899 222.722 448.361 223.741" stroke="#6D574E" stroke-miterlimit="10"/>
<path d="M451.504 224.505C462.967 226.543 474.939 218.392 476.127 207.949" stroke="#6D574E" stroke-miterlimit="10"/>
<path d="M537.515 255.41C536.581 252.693 534.883 250.401 533.015 248.193C528.09 242.08 522.571 236.476 516.543 231.467L494.976 251.08L508.307 264.07L492.684 292.343L513.401 298.286C513.401 298.286 529.279 280.796 535.308 271.032C538.364 266.193 539.383 260.759 537.515 255.41Z" fill="#E27769"/>
<path d="M496.929 285.975C496.929 285.975 487.844 298.966 486.995 301.343C486.146 303.466 485.722 306.098 485.382 308.39C484.533 314.588 487.844 320.956 490.307 324.012C490.561 324.352 490.986 324.607 491.41 324.692C492.344 324.861 492.684 324.352 492.684 323.248C493.193 323.927 493.703 324.607 494.212 325.286C494.382 325.541 494.637 325.88 494.977 326.05C495.571 326.305 496.25 325.965 496.675 325.456C497.099 324.861 497.354 324.182 497.524 323.418C498.033 324.182 498.882 325.031 499.731 324.522C500.58 324.012 501.26 322.314 501.09 321.295C501.345 322.144 502.533 322.229 503.128 321.55C503.722 320.956 503.977 319.937 504.147 319.003C504.656 316.626 505.081 314.248 506.184 312.211C506.949 310.852 507.968 309.748 508.902 308.475C511.873 304.4 513.317 299.22 514.251 294.126" fill="#E27769"/>
<path d="M502.789 306.098C502.365 307.032 501.94 307.881 501.601 308.815C501.261 309.579 500.921 310.258 500.667 311.022C499.478 314.418 499.648 318.324 501.176 321.55" stroke="black" stroke-miterlimit="10"/>
<path d="M495.995 305.758C495.146 309.833 494.806 314.757 495.401 317.899C495.825 319.937 496.674 321.804 497.693 323.503" stroke="black" stroke-miterlimit="10"/>
<path d="M490.051 304.229C490.051 304.229 489.542 307.286 489.372 308.984C488.948 314.418 489.712 319.682 492.683 323.672" stroke="black" stroke-miterlimit="10"/>
<path d="M332.377 206.93C330.764 206.76 329.151 206.59 327.453 206.42C326.009 206.251 324.566 206.166 323.122 205.656C322.188 205.317 321.339 204.892 320.405 204.468C316.754 202.685 314.971 202.175 311.49 200.138C309.537 198.949 307.499 197.845 305.377 196.911C303.339 195.977 301.131 195.553 299.263 194.279C299.093 194.194 298.923 194.024 298.839 193.855C298.754 193.685 298.754 193.515 298.839 193.43C299.263 190.289 305.631 191.053 308.178 191.732C308.943 191.902 309.707 192.157 310.471 192.072C310.556 191.053 310.046 190.119 309.622 189.27C308.179 186.723 306.141 184.685 304.188 182.478C302.405 180.44 300.707 178.317 299.093 176.195C297.565 174.157 296.037 169.742 297.225 169.233C298.414 168.723 297.735 169.742 298.159 169.827C297.395 169.317 297.65 167.45 298.244 166.77C298.754 166.006 300.282 167.11 300.876 167.874C300.367 167.195 300.537 165.667 301.046 165.327C301.895 164.902 302.829 165.497 303.593 165.921C304.358 166.346 305.122 166.94 305.971 167.11C305.716 166.516 305.631 165.921 305.546 165.327C305.971 164.818 306.82 165.072 307.414 165.412C319.217 171.865 329.321 181.628 341.887 187.317" fill="#E27769"/>
<path d="M307.926 186.978C309.284 188.846 310.133 191.138 310.813 193.94" stroke="black" stroke-miterlimit="10"/>
<path d="M298.158 169.233C299.686 171.185 301.809 172.544 303.677 174.242C306.564 176.874 309.366 179.676 312.167 182.478" stroke="black" stroke-miterlimit="10"/>
<path d="M300.791 167.704C301.725 168.553 302.659 169.318 303.678 170.082C304.782 170.846 305.885 171.525 306.989 172.289C310.13 174.327 313.187 176.619 316.074 179.166" stroke="black" stroke-miterlimit="10"/>
<path d="M306.311 167.365C307.329 168.299 308.603 168.893 309.792 169.572C313.612 171.61 317.178 174.072 320.405 176.959" stroke="black" stroke-miterlimit="10"/>
<path d="M332.885 207.694C332.885 207.694 326.178 206.76 323.461 206.081" stroke="black" stroke-miterlimit="10"/>
<path d="M480.627 209.647C485.212 210.071 489.797 210.496 494.212 212.194C499.731 214.316 504.571 218.222 509.071 222.213C513.826 226.373 518.581 232.061 523.251 236.476L499.646 257.108L482.919 240.806" fill="#2C221D"/>
<path d="M508.391 264.07C508.391 264.07 511.872 259.57 515.438 257.108" stroke="black" stroke-miterlimit="10"/>
<path d="M492.768 250.401L517.306 230.533" stroke="#6D574E" stroke-miterlimit="10"/>
<path d="M401.662 238.005L405.228 203.279" stroke="#6D574E" stroke-miterlimit="10"/>
<path d="M424.08 231.467C424.08 231.467 425.693 238.854 426.118 242.08" stroke="#6D574E" stroke-miterlimit="10"/>
<path d="M482.07 240.806C487.165 244.712 499.561 257.108 499.561 257.108" stroke="#6D574E" stroke-miterlimit="10"/>
<path d="M455.835 185.025L466.788 189.44L466.109 196.741L471.628 207.439C471.628 207.439 468.911 217.543 456.769 220.09C446.495 222.212 446.75 215.59 446.75 215.59L441.91 201.496" fill="#E27769"/>
<path d="M432.653 190.713C434.266 185.194 435.116 181.883 437.238 177.892C439.021 174.496 442.078 169.657 445.559 168.044C450.059 166.006 455.324 168.468 459.824 170.166C467.296 172.883 469.079 181.798 468.145 188.845C467.466 194.279 464.324 196.911 460.418 200.986C455.409 206.25 443.012 210.75 436.559 207.439C431.889 204.892 430.955 196.486 432.653 190.713Z" fill="#E27769"/>
<path d="M511.109 223.91C514.081 222.977 515.524 219.495 515.354 217.033C515.1 213.043 513.232 211.005 512.892 208.543C512.722 206.93 513.147 205.316 513.062 203.703C512.807 201.071 510.939 198.779 508.562 197.505C506.184 196.317 503.382 196.062 500.75 196.317C498.712 196.487 496.675 196.911 494.637 196.656C492.939 196.402 491.41 195.722 489.882 194.788C487.25 193.26 484.872 191.307 483.259 188.76C480.372 184.515 479.778 179.166 477.57 174.496C476.466 172.204 474.938 170.081 473.07 168.214C468.57 163.799 464.325 162.185 458.041 162.016C453.711 161.846 447.683 162.44 444.371 166.515C444.371 166.515 437.918 166.685 434.861 169.912C431.21 173.732 431.465 179.336 434.692 183.751C436.305 181.034 437.748 178.232 440.126 176.11C439.871 176.534 439.956 177.128 440.295 177.553C440.635 177.893 441.145 178.062 441.654 178.147C443.013 178.232 444.286 177.553 445.56 176.874C445.135 177.977 444.965 179.166 445.05 180.27C445.05 180.525 445.135 180.779 445.22 180.949C445.39 181.119 445.73 181.204 445.984 181.204C447.852 181.374 449.805 180.44 450.909 178.911C450.4 180.355 449.975 182.053 450.994 183.157C451.758 183.921 452.947 184.006 453.966 183.581C454.985 183.157 455.749 182.392 456.513 181.713C456.173 182.053 456.598 184.091 456.683 184.6C456.853 185.619 457.192 186.638 457.532 187.572C458.636 190.628 459.909 193.515 461.607 196.232C463.391 199.034 465.938 201.156 467.721 203.873C468.91 205.571 469.844 207.524 471.372 208.882C473.24 210.581 475.872 211.854 478.334 212.364C480.882 212.873 483.429 212.618 485.976 212.533C495.571 212.279 502.703 216.948 511.109 223.91Z" fill="#893D33"/>
<path d="M489.287 163.119C488.777 161.761 487.928 160.572 486.909 159.638C483.258 156.242 475.277 156.497 472.56 161.082C471.031 163.629 471.796 166.855 472.899 169.487L475.107 174.412C478.249 176.11 482.154 176.195 485.381 174.581C488.013 173.223 489.881 170.846 490.051 167.789C490.136 166.346 489.881 164.648 489.287 163.119Z" fill="#893D33"/>
<path d="M456.682 191.647C457.447 189.355 461.097 188.591 462.88 189.949C467.211 193.26 462.796 201.411 458.041 200.902C456.682 200.732 454.984 199.628 454.984 198.1" fill="#E27769"/>
<path d="M462.033 193.939L456.684 196.402" stroke="black" stroke-miterlimit="10"/>
<path d="M459.741 189.525C458.552 189.779 457.449 190.543 456.6 191.477" stroke="black" stroke-miterlimit="10"/>
<path d="M463.473 198.015C462.284 199.713 460.332 201.241 458.209 200.986C456.766 200.817 455.322 199.628 455.152 198.015" stroke="black" stroke-miterlimit="10"/>
<path d="M444.541 208.798C444.541 208.798 449.55 208.543 454.729 205.147" stroke="black" stroke-miterlimit="10"/>
<path d="M439.192 187.911C438.428 189.27 437.579 190.713 436.305 191.732C435.965 191.987 435.626 192.157 435.456 192.496C435.116 192.921 434.946 193.515 435.031 194.025C435.116 194.534 435.541 195.043 435.965 195.298" stroke="black" stroke-miterlimit="10"/>
<path d="M436.982 198.439C437.747 199.119 439.02 199.373 439.954 198.864C441.143 198.185 441.143 196.656 441.228 195.468" stroke="black" stroke-miterlimit="10"/>
<path d="M445.135 184.94C445.984 184.77 446.918 184.685 447.852 184.94C448.701 185.11 449.55 185.619 450.144 186.298C450.823 187.232 451.078 188.336 451.248 189.525" stroke="black" stroke-miterlimit="10"/>
<path d="M435.283 181.628C436.132 181.034 437.321 180.949 438.255 181.459C439.189 181.883 439.868 182.817 440.123 183.751" stroke="black" stroke-miterlimit="10"/>
<path d="M446.578 190.034C446.238 190.713 445.559 191.138 445.05 190.883C444.54 190.628 444.37 189.864 444.71 189.1C445.05 188.421 445.729 187.996 446.238 188.251C446.748 188.506 446.917 189.27 446.578 190.034Z" fill="black"/>
<path d="M437.068 186.893C436.728 187.572 436.049 187.996 435.54 187.742C435.03 187.487 434.861 186.723 435.2 185.959C435.54 185.279 436.219 184.855 436.728 185.11C437.238 185.364 437.408 186.128 437.068 186.893Z" fill="black"/>
<path d="M535.988 285.381C541.167 280.117 544.818 273.409 546.431 266.193" stroke="black" stroke-miterlimit="10"/>
<path d="M547.789 282.409C549.317 279.353 550.336 275.957 550.761 272.476" stroke="black" stroke-miterlimit="10"/>
<path d="M446.495 117.525C446.495 117.525 437.664 121.601 431.721 124.233C428.324 125.761 422.72 129.921 420.852 133.063C418.39 137.053 417.796 142.063 418.05 146.223C418.22 148.94 419.494 151.996 421.277 154.968C422.466 156.921 423.739 158.959 424.843 158.704C425.947 158.449 425.522 155.732 425.522 155.732C425.522 155.902 426.881 158.534 427.136 158.704C427.56 158.959 428.07 159.213 428.409 158.959C429.003 158.619 429.343 158.364 429.683 157.77C429.937 157.26 429.938 156.751 430.022 156.242C430.107 155.732 430.022 154.544 430.022 154.034C430.277 154.544 430.532 156.327 430.956 156.242C431.466 156.157 432.23 155.732 432.57 155.223C433.419 154.204 433.843 153.015 434.268 151.742C434.268 151.996 434.268 152.336 434.353 152.591C434.438 152.845 434.692 153.1 435.032 153.1C435.372 153.1 436.9 151.996 437.155 151.742C438.089 150.468 438.428 148.685 439.193 147.242C439.787 146.053 440.296 145.204 441.145 144.1C441.91 143.166 443.013 141.978 444.117 141.383C446.325 140.195 447.768 139.855 450.061 138.836C452.014 137.902 453.882 136.799 455.24 135.101" fill="#D16159"/>
<path d="M434.184 152.251C434.353 150.298 434.608 148.43 434.863 146.478C435.033 145.204 435.287 143.93 435.797 142.742C436.646 140.789 438.174 139.261 439.617 137.733" stroke="black" stroke-miterlimit="10"/>
<path d="M430.277 154.459C429.513 151.232 429.598 147.921 429.683 144.61C429.683 143.676 429.768 142.742 429.937 141.893C430.277 140.365 431.211 139.006 432.145 137.733" stroke="black" stroke-miterlimit="10"/>
<path d="M425.693 156.326C424.674 153.1 423.655 149.874 423.315 146.563C423.23 145.883 423.23 145.289 423.23 144.61C423.315 142.232 424.08 139.855 425.268 137.733" stroke="black" stroke-miterlimit="10"/>
<path d="M454.051 69.5549L469.589 98.9317L434.861 122.705L457.702 140.704C457.702 140.704 496.675 128.054 507.288 121.771C515.609 116.846 519.175 104.026 503.128 83.0547C487.08 62.1683 476.042 49.7723 472.73 46.2064C465.683 38.7348 457.192 35.5934 449.381 39.5839" fill="#4C4139"/>
<path d="M454.051 69.5549L469.589 98.9316L434.861 122.705" stroke="black" stroke-miterlimit="10"/>
<path d="M454.985 132.638C454.985 133.318 454.475 133.827 453.796 133.827C453.117 133.827 452.607 133.318 452.607 132.638C452.607 131.959 453.117 131.45 453.796 131.45C454.39 131.45 454.985 131.959 454.985 132.638Z" stroke="black" stroke-miterlimit="10"/>
<path d="M460.929 130.176C461.585 130.176 462.118 129.644 462.118 128.988C462.118 128.331 461.585 127.799 460.929 127.799C460.272 127.799 459.74 128.331 459.74 128.988C459.74 129.644 460.272 130.176 460.929 130.176Z" stroke="black" stroke-miterlimit="10"/>
<path d="M447.174 132.384C447.344 132.469 462.117 124.997 462.117 124.997" stroke="black" stroke-miterlimit="10"/>
<path d="M447.939 113.79C448.109 113.705 474.601 135.016 474.601 135.016" stroke="black" stroke-miterlimit="10"/>
<path d="M468.742 99.1866C471.969 97.9131 475.28 96.5546 478.761 96.0452C482.497 95.4509 486.233 95.7056 489.969 95.8754" stroke="black" stroke-miterlimit="10"/>
<path d="M457.703 140.705L502.705 124.318" stroke="black" stroke-miterlimit="10"/>
<path d="M465.599 32.2824C456.598 23.8769 447.428 15.4714 436.815 9.18851C417.116 -2.35841 389.691 -0.575434 376.105 7.83005C365.662 14.2827 360.227 22.3486 353.52 32.3673C345.114 44.8481 336.368 58.263 322.613 64.2911C315.905 67.1779 308.518 68.1118 301.301 69.4703C294.084 70.9136 286.782 72.9513 281.263 77.7908C275.744 82.6304 272.602 90.866 275.574 97.4885C277.951 102.753 283.64 106.064 289.414 106.234C295.188 106.403 300.792 103.687 304.952 99.696C315.481 89.5076 320.405 62.678 300.877 54.9517" stroke="#ED725A" stroke-width="1.5" stroke-miterlimit="10"/>
<path d="M39.0205 214.146C40.2941 220.005 43.4357 226.288 47.6812 231.127C53.2002 237.41 64.493 241.485 69.3328 232.316C71.6253 228.071 72.7291 221.193 67.3799 218.137C67.0403 217.882 66.5308 217.712 66.1063 217.712C65.0874 217.712 64.4081 218.561 64.0685 219.41C62.625 223.231 64.9175 227.476 68.0592 230.533C69.5026 231.976 71.2008 233.335 73.2386 234.014C75.3613 234.693 77.9085 234.693 79.6916 233.589C82.4936 231.891 83.2577 228.071 83.0879 225.354" stroke="#8F96DB" stroke-width="1.5" stroke-miterlimit="10"/>
<path d="M27.1328 59.0273C32.1424 52.7444 38.8502 47.0558 46.407 44.0842C50.4826 42.471 55.8318 41.9616 60.1621 42.8107C62.2849 43.2352 64.8321 43.9144 66.1057 45.8672C67.4643 47.9049 65.851 51.6407 68.653 52.8293C69.3322 53.084 70.1813 53.084 70.9455 52.9142C73.3229 52.5746 75.6155 51.8105 77.9929 51.4708C80.3703 51.1312 82.9176 51.1312 85.0403 52.235C87.163 53.3387 88.7763 55.6311 88.5215 58.0084C88.4366 58.9424 88.0121 59.8763 88.1819 60.8103C88.4366 62.3385 90.2197 63.1876 91.748 63.2725C94.9746 63.6121 98.0313 63.4423 100.833 65.5649C102.871 67.0932 104.06 69.8101 102.956 72.0176" stroke="#FFDD99" stroke-width="1.5" stroke-miterlimit="10"/>
<path d="M238.979 52.9989C240.252 50.197 241.611 47.3952 243.818 45.2726C246.026 43.15 249.168 41.7067 252.139 42.301C253.668 42.6406 255.196 43.4047 256.724 43.4047C258.932 43.3198 260.8 41.7067 261.734 39.7539C262.753 37.8011 263.008 35.5936 263.432 33.471C264.111 30.0748 265.13 26.5089 267.423 23.9617C269.8 21.4146 273.706 19.9713 276.848 21.4995" stroke="#FFDD99" stroke-width="1.5" stroke-miterlimit="10"/>
<path d="M91.0495 338.971C91.9255 333.745 88.3991 328.799 83.1733 327.923C77.9475 327.047 73.001 330.573 72.1251 335.799C71.2491 341.025 74.7755 345.971 80.0013 346.847C85.2272 347.723 90.1736 344.196 91.0495 338.971Z" stroke="#909DF4" stroke-width="1.5" stroke-miterlimit="10"/>
<path d="M244.328 19.2922C248.595 19.2922 252.054 15.8331 252.054 11.566C252.054 7.29887 248.595 3.83971 244.328 3.83971C240.061 3.83971 236.602 7.29887 236.602 11.566C236.602 15.8331 240.061 19.2922 244.328 19.2922Z" stroke="#8F96DB" stroke-width="1.5" stroke-miterlimit="10"/>
<path d="M520.197 308.899L525.292 342.776L545.5 327.918L520.197 308.899Z" fill="#FFDD99"/>
<path d="M11.6795 271.796L25.3498 256.344L2 257.108L11.6795 271.796Z" stroke="#8F96DB" stroke-width="1.5" stroke-miterlimit="10"/>
<path d="M33.5012 310.173C36.5491 310.173 39.0199 307.702 39.0199 304.654C39.0199 301.606 36.5491 299.135 33.5012 299.135C30.4533 299.135 27.9824 301.606 27.9824 304.654C27.9824 307.702 30.4533 310.173 33.5012 310.173Z" fill="#FFDD99"/>
<path d="M45.3033 73.7153L32.0576 102.752L72.6438 96.8941L45.3033 73.7153Z" fill="#ED725A"/>
<path d="M19.2366 146.053C19.2366 147.921 17.7084 149.45 15.8405 149.45C13.9726 149.45 12.4443 147.921 12.4443 146.053C12.4443 144.186 13.9726 142.657 15.8405 142.657C17.7933 142.657 19.2366 144.186 19.2366 146.053Z" fill="#909DF4"/>
<path d="M474.939 13.6885C474.939 15.5564 473.411 17.0846 471.543 17.0846C469.675 17.0846 468.146 15.5564 468.146 13.6885C468.146 11.8206 469.675 10.2923 471.543 10.2923C473.411 10.3772 474.939 11.8206 474.939 13.6885Z" fill="#ED725A"/>
<path d="M536.668 306.861C539.13 305.842 542.442 306.012 544.649 307.54C546.687 308.899 547.706 311.446 550.084 312.21C553.65 313.399 556.706 310.087 560.188 309.833C563.159 309.663 565.537 311.616 566.641 314.248C567.66 316.455 567.829 318.917 567.999 321.295" stroke="#8F96DB" stroke-width="1.5" stroke-miterlimit="10"/>
<path d="M510.688 76.6019C511.876 73.5454 515.188 71.4228 518.414 71.5077C520.112 71.5926 521.81 72.102 523.424 71.6775C528.433 70.4039 528.009 61.5739 533.018 60.0457C536.5 59.0268 540.236 62.3381 543.632 61.0645C546.519 59.9608 547.283 56.3099 548.132 53.3382C550.594 45.3573 557.981 39.0744 566.302 37.8857" stroke="#8F96DB" stroke-width="1.5" stroke-miterlimit="10"/>
<path d="M472.222 252.778C475.193 252.778 477.571 255.155 477.571 258.127V352.37C477.571 355.342 475.193 357.719 472.222 357.719H319.556C316.585 357.719 314.207 355.342 314.207 352.37V258.127C314.207 255.155 316.585 252.778 319.556 252.778H472.222ZM472.222 251.504H319.556C315.905 251.504 312.934 254.476 312.934 258.127V352.37C312.934 356.021 315.905 358.993 319.556 358.993H472.307C475.958 358.993 478.929 356.021 478.929 352.37V258.127C478.844 254.476 475.873 251.504 472.222 251.504Z" fill="#A3C3FB"/>
<path d="M472.221 357.719H319.556C316.584 357.719 314.207 355.342 314.207 352.37V266.957H477.571V352.37C477.571 355.342 475.193 357.719 472.221 357.719Z" fill="#E8F0FE"/>
<path d="M326.687 260.334C326.687 262.032 325.329 263.391 323.631 263.391C321.933 263.391 320.574 262.032 320.574 260.334C320.574 258.636 321.933 257.278 323.631 257.278C325.329 257.278 326.687 258.636 326.687 260.334Z" stroke="white" stroke-width="1.5" stroke-miterlimit="10"/>
<path d="M338.576 260.334C338.576 262.032 337.218 263.391 335.519 263.391C333.821 263.391 332.463 262.032 332.463 260.334C332.463 258.636 333.821 257.278 335.519 257.278C337.133 257.278 338.576 258.636 338.576 260.334Z" stroke="white" stroke-width="1.5" stroke-miterlimit="10"/>
<path d="M314.207 266.957H477.571" stroke="#A3C3FB" stroke-width="1.5" stroke-miterlimit="10"/>
<path d="M454.647 337.342C446.495 328.342 437.071 323.927 432.316 324.946C425.268 326.559 426.542 344.559 426.712 351.775C423.315 347.87 419.07 344.559 414.4 342.351C410.834 340.653 406.843 339.464 403.022 340.398C399.201 341.332 395.805 344.898 396.314 348.804C387.399 335.559 375.172 324.691 360.993 317.304C352.077 312.72 327.709 303.125 323.548 313.059C318.963 324.012 344.86 357.634 344.86 357.634H470.524C470.439 357.719 462.034 345.493 454.647 337.342Z" fill="#A3C3FB"/>
<path d="M297.65 241.231C293.065 236.391 288.65 227.052 287.377 222.042C286.273 217.627 285.339 213.213 283.216 209.137C282.622 208.033 280.244 205.486 281.093 204.213C282.876 201.581 287.122 205.062 288.226 206.59C288.65 207.184 290.094 209.562 290.858 209.647C291.622 209.731 291.877 206.93 291.962 205.741C292.301 201.071 292.301 195.977 291.962 191.222C291.537 186.383 292.216 182.053 293.745 181.883C295.273 181.628 295.188 182.562 295.528 182.902C295.782 181.374 297.141 179.506 298.075 180.015C298.669 180.355 298.839 181.034 298.924 181.628C299.009 182.223 299.349 183.496 299.349 183.496C299.349 183.496 300.198 180.185 301.811 182.053C302.66 182.987 303.849 187.996 304.613 189.609C304.528 188.59 304.273 187.996 304.613 186.722C304.783 186.043 305.207 185.534 305.887 185.873C306.311 186.043 306.396 186.468 306.566 186.892C307.33 189.1 309.368 192.751 310.047 194.958C310.811 197.335 311.575 199.713 312.34 202.09C313.783 206.505 315.142 211.175 316.16 215.845C317.094 220.175 320.576 230.703 320.576 230.703" fill="#A04B4B"/>
<path d="M295.529 183.156C295.954 185.704 296.888 188.93 297.397 191.817C298.161 195.977 298.501 199.798 299.095 203.448" stroke="black" stroke-miterlimit="10"/>
<path d="M299.604 183.581C300.113 185.789 300.962 188.76 301.471 191.222C302.405 195.383 303.085 199.034 303.934 202.684" stroke="black" stroke-miterlimit="10"/>
<path d="M304.697 189.525C305.886 193.515 307.669 198.015 309.027 203.024" stroke="black" stroke-miterlimit="10"/>
<path d="M291.368 209.477C291.028 211.599 290.943 213.807 289.5 215.59" stroke="black" stroke-miterlimit="10"/>
<path d="M453.797 357.719C452.184 353.389 450.4 348.804 447.938 344.729C445.476 340.738 442.249 337.087 438.174 334.54C436.306 333.436 434.353 332.503 432.4 331.653C427.051 329.276 421.701 326.984 416.437 324.606L390.285 314.418C388.672 312.89 387.059 311.446 385.446 309.918C382.304 307.031 379.247 304.06 376.106 301.173C376.021 301.088 375.851 300.918 375.766 300.833C352.077 278.249 334.501 252.948 319.047 223.486L291.367 235.627C291.367 235.627 303.339 276.381 314.717 293.617C329.746 316.456 347.067 337.257 354.879 343.795C356.237 348.464 357.85 353.134 359.718 357.719H453.797Z" fill="#FCDDD2"/>
<path d="M295.783 249.636L325.416 235.373" stroke="black" stroke-miterlimit="10"/>
<path d="M297.311 232.995L307.244 254.73" stroke="black" stroke-miterlimit="10"/>
<path d="M306.65 237.58C306.65 238.684 305.801 239.533 304.697 239.533C303.593 239.533 302.744 238.684 302.744 237.58C302.744 236.476 303.593 235.627 304.697 235.627C305.801 235.627 306.65 236.476 306.65 237.58Z" stroke="#D8A798" stroke-miterlimit="10"/>
<path d="M413.465 357.125C414.823 355.342 416.182 353.559 417.54 351.776C418.984 349.823 420.512 347.955 422.126 346.172C426.965 341.078 433.503 337.427 440.551 336.663" stroke="#D8A798" stroke-miterlimit="10"/>
<path d="M354.031 341.247C354.031 334.2 356.409 327.153 360.484 321.38C365.579 314.078 373.136 308.899 382.306 308.644" stroke="#D8A798" stroke-miterlimit="10"/>
<path d="M354.709 343.54C353.436 339.634 352.671 335.304 350.549 331.738" stroke="black" stroke-miterlimit="10"/>
<path d="M381.88 311.532L380.182 333.267C380.182 333.267 387.484 340.739 397.503 335.899C407.522 331.059 414.909 321.805 414.909 321.805L411.598 308.305" fill="#A04B4B"/>
<path d="M421.788 284.447C420.769 281.306 418.901 278.334 416.269 276.296C410.071 271.287 403.363 271.372 396.74 275.278C390.966 278.674 383.07 284.023 378.74 289.117C374.239 294.381 371.183 300.919 375.768 307.117C383.24 317.05 404.042 313.654 414.061 305.503C418.137 302.192 421.958 296.843 422.552 291.494C422.807 289.117 422.552 286.74 421.788 284.447Z" fill="#A04B4B"/>
<path d="M395.465 277.994C392.153 279.692 388.502 280.117 384.852 280.541C383.069 280.711 380.776 281.306 381.116 283.598C381.286 285.041 382.644 286.315 383.663 287.249" fill="#A04B4B"/>
<path d="M381.031 300.579C381.031 300.579 381.626 299.221 381.965 298.541C382.56 297.268 380.692 296.334 379.758 295.909C379.078 295.57 378.739 295.315 378.144 295.739C377.974 295.824 377.04 296.758 376.786 296.589L375.003 294.551C373.644 296.673 372.795 300.664 372.965 303.041C373.135 305.419 374.069 307.796 375.767 309.494C376.446 310.173 377.55 311.107 378.314 311.616C385.192 315.777 393.683 315.437 401.154 312.55C403.447 311.617 405.74 310.428 407.353 308.645C384.682 308.305 381.031 300.579 381.031 300.579Z" fill="#1E1611"/>
<path d="M408.286 299.051C408.201 299.051 408.116 299.051 407.946 298.966C406.418 298.711 404.89 298.966 403.446 298.456C402.258 298.032 401.154 297.268 400.475 296.249C399.71 294.975 400.729 294.211 401.833 293.617C403.361 292.768 404.89 291.834 406.163 290.56C408.201 288.523 409.305 285.636 408.456 282.749C407.522 279.693 404.465 277.825 402.088 275.872C399.795 274.004 396.908 271.032 397.842 267.806C398.776 264.495 402.003 263.306 405.06 263.816C406.758 264.07 408.456 264.495 410.069 264.24C410.918 264.07 411.767 263.815 412.616 263.561C415.164 262.966 418.136 263.816 419.749 265.938C420.853 267.466 421.277 269.674 422.975 270.523C423.824 270.947 424.758 270.947 425.607 271.117C427.39 271.542 428.919 272.9 429.683 274.598C430.447 276.296 430.362 278.334 429.768 280.032C428.579 283.174 426.796 284.702 428.24 288.183C431.636 296.249 433.079 306.098 424.928 311.871C422.805 313.399 420.088 314.164 418.305 316.116C417.202 317.305 416.268 319.003 414.654 319.173C413.55 319.258 412.532 318.579 411.767 317.814C411.088 317.135 410.579 316.286 410.069 315.437C409.39 314.248 408.626 313.06 408.456 311.701C408.286 309.749 409.22 307.966 410.154 306.183C411.003 304.569 412.786 301.173 410.664 299.9C409.984 299.645 409.135 299.22 408.286 299.051Z" fill="#1E1611"/>
<path d="M403.192 281.56C402.683 280.032 401.749 278.504 400.305 279.183C399.966 279.353 399.711 279.777 399.711 280.117C399.626 280.542 399.711 280.881 399.796 281.306C400.135 283.174 400.475 285.042 401.494 286.655C401.664 286.994 401.918 287.249 402.258 287.419C404.55 288.523 403.532 282.409 403.192 281.56Z" fill="#1E1611"/>
<path d="M388.927 292.088L382.559 290.645C382.559 290.645 381.965 296.164 384.682 296.673C387.398 297.183 388.927 292.088 388.927 292.088Z" fill="white"/>
<path d="M382.219 285.636C382.728 286.315 383.492 286.825 384.256 287.164" stroke="black" stroke-miterlimit="10"/>
<path d="M389.268 280.032C391.645 279.692 394.022 278.843 396.145 277.655" stroke="black" stroke-miterlimit="10"/>
<path d="M406.756 299.305C409.133 297.522 413.378 299.221 414.228 301.853C416.35 308.22 406.162 313.484 401.662 309.579C400.388 308.475 399.454 306.183 400.558 304.569" fill="#A04B4B"/>
<path d="M410.578 305.333L403.361 304.145" stroke="black" stroke-miterlimit="10"/>
<path d="M411.341 299.22C409.897 298.711 408.284 298.626 406.756 298.966" stroke="black" stroke-miterlimit="10"/>
<path d="M400.811 304.654C400.047 306.012 400.217 307.71 401.151 308.984C402.764 311.276 406.585 311.361 408.877 310.342" stroke="black" stroke-miterlimit="10"/>
<path d="M396.569 286.824C395.635 287.503 394.531 287.503 394.107 286.824C393.597 286.145 394.022 285.126 394.871 284.447C395.805 283.768 396.909 283.768 397.333 284.447C397.843 285.041 397.418 286.145 396.569 286.824Z" fill="black"/>
<path d="M418.475 321.126C395.55 323.843 381.455 334.371 381.455 334.371L385.446 352.625C405.994 333.097 425.947 328.682 426.117 328.512L418.475 321.126Z" fill="#FCDDD2"/>
<path d="M380.775 322.654L372.115 328.173C372.115 328.173 370.587 343.71 373.474 351.946L381.455 334.286L380.775 322.654Z" fill="#FCDDD2"/>
<path d="M381.455 334.371L385.446 352.625C405.994 333.097 425.947 328.682 426.117 328.512" stroke="black" stroke-miterlimit="10"/>
<path d="M380.775 322.654L372.115 328.173C372.115 328.173 370.587 343.71 373.474 351.946L381.455 334.286" stroke="black" stroke-miterlimit="10"/>
<path d="M295.699 273.409C297.992 281.645 301.473 289.541 305.888 296.928" stroke="black" stroke-miterlimit="10"/>
<path d="M296.461 287.589C297.904 292.853 299.687 298.117 301.725 303.211" stroke="black" stroke-miterlimit="10"/>
<path d="M438.089 298.711C438.174 302.446 436.73 306.182 434.523 309.239C432.315 312.295 429.259 314.673 426.117 316.795" stroke="black" stroke-miterlimit="10"/>
<path d="M435.457 316.626C438.598 314.843 441.315 312.211 443.183 309.154" stroke="black" stroke-miterlimit="10"/>
</svg>
