<svg width="300" height="214" viewBox="0 0 300 214" fill="none" xmlns="http://www.w3.org/2000/svg">
<g clip-path="url(#clip0_832_734)">
<path d="M50.6469 148.446C56.177 133.696 62.0401 118.387 71.1138 109.389C80.1876 100.391 93.4815 100.046 100.268 113.359C106.271 125.15 105.165 142.349 103.726 157.48C110.416 143.846 118.244 131.687 126.931 121.465C133.642 113.573 141.03 106.703 149.18 104.23C157.642 101.663 167.285 104.492 174.222 112.848C183.693 124.246 183.543 142.206 182.619 159.524C194.109 124.722 206.887 90.1928 224.584 62.3676C229.158 55.1646 234.549 48.9363 240.734 46.1788C244.288 44.5979 248.294 44.2889 251.472 47.2604C256.315 51.7652 257.593 61.9516 257.733 70.9018C257.904 81.6943 257.121 92.5225 255.424 102.982C258.517 97.681 262.586 93.7586 267.043 92.3917C277.276 89.2419 287.381 101.615 287.961 118.41C288.573 135.883 281.915 152.571 276.825 167.25C274.892 172.848 272.895 178.423 270.704 183.772C270.275 184.818 268.643 190 267.655 190H36C40.8859 176.973 45.761 161.485 50.6469 148.446Z" fill="#EF9748"/>
<path d="M195.176 85.2896V212.514H110.391V91.7795C113.387 88.6622 117.46 85.3784 122.487 83.5812L131.498 82.3054L142.629 80.7301L165.313 78.123L195.165 85.2896H195.176Z" fill="white"/>
<path d="M126.127 88.0742C128.724 92.7669 133.562 96.1394 138.856 96.9604" stroke="black" stroke-width="0.930137" stroke-miterlimit="10"/>
<path d="M146.646 97.3048C152.084 97.5599 157.589 96.029 162.105 93.0115C166.633 89.994 170.151 85.501 172.004 80.3867" stroke="black" stroke-width="0.930137" stroke-miterlimit="10"/>
<path d="M160.563 41.2695L158.643 55.7137L165.135 78.1676C165.135 78.1676 161.628 86.7764 150.253 90.8589C138.967 94.9081 133.773 83.9696 133.773 83.9696L131.498 62.3367" fill="#FFCAA2"/>
<path d="M118.525 66.6632C116.583 60.4507 114.141 47.0493 114.33 41.9462C114.485 37.6307 115.784 33.4039 118.625 30.0536C122.287 25.7492 130.91 27.2912 136.414 26.7698C145.448 25.9156 151.096 36.61 153.638 44.287C155.591 50.1778 156.523 56.2461 154.526 62.2589C151.274 72.0326 140.853 81.9172 129.811 79.2436C123.819 77.7903 120.401 72.676 118.525 66.6521V66.6632Z" fill="#FFCAA2"/>
<path d="M166.522 28.4563C165.068 26.9142 163.082 25.6939 162.438 23.6748C162.083 22.5543 161.528 19.204 161.162 18.0835C159.142 11.8488 153.915 9.76318 147.978 10.7838C147.345 4.82643 141.02 4.24955 135.826 4.18299C133.662 4.1608 131.465 3.95002 129.523 2.9072C127.47 1.80891 125.616 0.26687 123.219 0.0339002C121.088 -0.165789 118.891 0.533122 117.115 1.69797C110.956 5.74722 109.203 13.5794 101.657 15.9424C99.2706 16.6857 96.7847 16.9076 94.7206 18.4718C93.1891 19.6367 92.046 21.3784 91.8241 23.2976C91.5134 26.0378 93.3223 27.7019 95.1867 29.3659C97.3618 31.3074 98.638 33.7813 98.4604 36.7322C98.3495 38.5183 97.8723 40.2601 97.5837 42.0351C96.7736 47.0717 98.3828 51.8309 102.6 54.8706C103.488 55.5141 104.697 56.1131 107.949 56.8231C110.246 57.3224 116.194 56.4571 116.194 56.4571C116.194 56.4571 114.73 47.8926 114.752 44.5645C114.774 41.3916 115.75 38.4407 117.604 35.9113C119.191 33.748 122.653 32.9936 125.228 33.1046C129.09 33.2821 132.785 35.401 136.625 34.9572C138.223 34.7686 139.732 34.103 140.986 33.0935C146.147 36.4327 151.496 41.3473 152.683 47.349C152.739 47.6486 153.504 51.1986 153.238 51.254C157.666 50.3222 163.248 49.9672 165.235 45.1303C165.923 43.4662 165.579 41.7134 166.089 40.016C166.522 38.6182 167.776 37.5976 168.353 36.2552C169.485 33.6593 168.453 30.5086 166.522 28.4452V28.4563Z" fill="black"/>
<path d="M148.111 46.6278C148.344 42.7783 153.66 39.9605 157.033 41.3139C165.146 44.5866 161.805 59.2193 154.092 60.3287C151.917 60.6393 148.843 59.6742 148.166 57.1891" fill="#FFCAA2"/>
<path d="M157.378 47.915L150.053 54.0388" stroke="black" stroke-width="0.930137" stroke-miterlimit="10"/>
<path d="M151.929 42.0127C150.164 42.9779 148.71 44.5199 147.8 46.3615" stroke="black" stroke-width="0.930137" stroke-miterlimit="10"/>
<path d="M161.273 53.6504C160.086 56.7567 157.788 60.0072 154.348 60.4398C151.951 60.7393 149.265 59.5967 148.389 57.0895" stroke="black" stroke-width="0.930137" stroke-miterlimit="10"/>
<path d="M125.095 51.8428C125.461 55.2819 125.838 58.7098 126.227 62.1489C126.282 62.626 126.349 63.1363 126.682 63.4802C127.98 64.8447 130.943 64.1902 132.33 63.3692" stroke="black" stroke-width="0.930137" stroke-miterlimit="10"/>
<path d="M135.571 64.7773L129.634 68.2497C129.634 68.2497 131.931 72.654 134.228 71.7997C138.512 70.2022 135.571 64.7884 135.571 64.7884V64.7773Z" fill="black"/>
<path d="M128.124 44.4201C128.734 43.1665 129.988 42.3344 131.309 41.9018C133.551 41.1807 136.103 41.5357 138.056 42.8336" stroke="black" stroke-width="0.930137" stroke-miterlimit="10"/>
<path d="M114.241 49.4016C114.452 48.0925 115.207 47.1052 116.083 46.5061C117.57 45.4966 119.479 45.5077 121.122 46.5283" stroke="black" stroke-width="0.930137" stroke-miterlimit="10"/>
<path d="M135.982 49.5343C136.281 50.8212 135.726 52.0415 134.727 52.2856C133.729 52.5186 132.686 51.6755 132.375 50.3886C132.064 49.1017 132.63 47.8814 133.629 47.6373C134.628 47.4043 135.671 48.2475 135.982 49.5343Z" fill="black"/>
<path d="M122.287 53.6174C122.587 54.9042 122.032 56.1246 121.033 56.3686C120.034 56.6016 118.98 55.7585 118.68 54.4716C118.381 53.1847 118.936 51.9644 119.934 51.7203C120.933 51.4873 121.987 52.3305 122.287 53.6174Z" fill="black"/>
<path d="M118.669 34.7793C116.117 36.1549 115.007 39.1503 113.276 41.48C110.479 45.2408 105.64 47.393 100.979 46.927" stroke="white" stroke-width="0.930137" stroke-miterlimit="10"/>
<path d="M141.419 32.7604C143.728 30.6304 145.392 27.7904 146.125 24.7285" stroke="white" stroke-width="0.930137" stroke-miterlimit="10"/>
<path d="M133.329 79.6989C133.329 79.6989 146.813 78.7227 149.21 69.1709" stroke="black" stroke-width="0.930137" stroke-miterlimit="10"/>
<path d="M167.111 78.6338L165.135 212.514L217.86 211.815L201.147 86.4771L184.989 82.1727C183.813 81.8621 182.636 81.5958 181.449 81.3629L167.111 78.6338Z" fill="#1A73E8"/>
<path d="M134.972 212.513L110.402 213.012L104.432 99.6114C104.432 99.6114 106.507 95.8284 110.402 91.7792C113.398 88.6618 117.471 85.378 122.499 83.5808C125.217 82.5935 128.247 82.0388 131.51 82.1719V82.305L134.972 212.513Z" fill="#1A73E8"/>
<path d="M202.301 194.886C201.269 197.116 199.471 198.857 197.573 200.377C195.321 202.174 193.867 202.896 191.703 204.781C191.203 205.214 191.004 205.846 190.704 206.49C190.56 206.801 190.182 206.923 189.883 206.745C183.979 203.217 177.22 194.852 173.325 189.15C179.185 184.613 188.052 177.724 188.052 177.724L202.312 194.875L202.301 194.886Z" fill="#FFCAA2"/>
<path d="M191.625 122.532L209.858 156.912L176.077 184.358L203.544 201.065C203.544 201.065 240.066 184.557 252.506 177.191C262.272 171.4 260.863 159.286 249.188 138.285C234.173 111.283 217.393 99.2349 213.543 95.1523C205.242 86.3549 195.365 82.7051 186.165 87.3312" fill="#1A73E8"/>
<path d="M189.683 123.485L209.803 158.875L176.066 184.368L203.533 201.076L215.685 195.495" stroke="white" stroke-width="0.930137" stroke-miterlimit="10"/>
<path d="M170.695 184.956C170.695 184.956 181.737 205.247 192.935 207.044" stroke="white" stroke-width="0.930137" stroke-miterlimit="10"/>
<path d="M189.228 174.418L217.86 193.233" stroke="white" stroke-width="0.930137" stroke-miterlimit="10"/>
<path d="M192.146 193.232L207.128 186.177" stroke="white" stroke-width="0.930137" stroke-miterlimit="10"/>
<path d="M184.989 82.1729L166.023 152.286" stroke="white" stroke-width="0.930137" stroke-miterlimit="10"/>
<path d="M117.016 87.209L133.685 155.869" stroke="white" stroke-width="0.930137" stroke-miterlimit="10"/>
<path d="M203.533 194.508C204.52 194.508 205.32 193.708 205.32 192.722C205.32 191.735 204.52 190.936 203.533 190.936C202.546 190.936 201.746 191.735 201.746 192.722C201.746 193.708 202.546 194.508 203.533 194.508Z" stroke="white" stroke-width="0.930137" stroke-miterlimit="10"/>
<path d="M104.42 99.6113L91.7803 184.967C91.7803 184.967 101.091 207.055 117.682 192.722" fill="#1A73E8"/>
<path d="M106 113L110 196" stroke="white" stroke-width="0.930137" stroke-miterlimit="10"/>
<path d="M84.1227 141.392C84.1227 141.392 60.496 135.59 56.4897 156.69L70.3062 161.505L87.108 153.916L84.1227 141.38V141.392Z" fill="#1A73E8"/>
<path d="M63.8251 158.099L60.3516 154.271L81.3482 142.878L85.9093 146.006L65.0125 159.297L63.8251 158.099Z" fill="#FFCAA2"/>
<path d="M97.4509 193.233L56.4897 156.69C56.4897 156.69 80.5382 154.516 84.1227 141.392L104.42 159.131" fill="#1A73E8"/>
<path d="M96.6187 152.285L102.4 157.366" stroke="white" stroke-width="0.930137" stroke-miterlimit="10"/>
<path d="M91.7801 148.081C91.7801 148.081 89.5051 169.714 65.9116 165.099" stroke="white" stroke-width="0.930137" stroke-miterlimit="10"/>
<path d="M75.5444 151.087L86.1759 160.162" stroke="white" stroke-width="0.930137" stroke-miterlimit="10"/>
<path d="M84.1226 152.729C85.1094 152.729 85.9094 151.93 85.9094 150.943C85.9094 149.957 85.1094 149.157 84.1226 149.157C83.1359 149.157 82.3359 149.957 82.3359 150.943C82.3359 151.93 83.1359 152.729 84.1226 152.729Z" stroke="white" stroke-width="0.930137" stroke-miterlimit="10"/>
<path d="M48.3443 137.442C48.3443 137.442 41.5636 128.501 41.941 123.608C42.3183 118.716 47.1013 124.684 47.1013 124.684L49.4873 137.442" fill="#FFCAA2"/>
<path d="M80.8711 140.371L56.2233 145.952C55.0581 146.218 53.8596 145.674 53.2825 144.62L33.329 108.055C32.4745 106.491 33.3623 104.55 35.0935 104.172L59.9632 98.6698C61.1285 98.4146 62.327 98.9582 62.893 100.012L82.6245 136.5C83.4679 138.053 82.5912 139.983 80.86 140.371H80.8711Z" fill="black"/>
<path d="M81.5485 143.71C80.1502 137.486 78.1193 131.196 74.3128 126.348C73.1476 124.861 71.8159 123.519 70.8171 121.877C69.3189 119.414 68.6531 116.475 67.965 113.623C67.6876 112.492 67.3657 111.294 66.5556 110.539C65.7566 109.796 64.3361 109.874 64.0476 110.95C64.2251 109.73 63.2929 107.644 62.283 107.089C61.2732 106.546 60.2855 107.577 59.6529 108.565C59.3533 107.699 59.0426 106.812 58.4766 106.135C57.9106 105.458 57.0006 105.07 56.3125 105.447C55.9463 105.647 55.6911 106.013 55.4469 106.379C54.8588 107.256 54.2595 108.121 53.6713 108.997C53.6491 107.644 53.1608 107.067 52.0289 107.322C51.5184 107.433 51.0079 107.722 50.675 108.154C47.7341 111.97 43.9276 119.958 45.3148 127.546C45.8142 130.297 46.4912 133.526 47.5898 136.088C48.8217 138.94 60.5407 154.537 60.5407 154.537" fill="#FFCAA2"/>
<path d="M66.9221 129.577C66.3783 128.49 65.8346 127.391 65.2908 126.304C64.8469 125.417 64.4141 124.529 64.0479 123.608" stroke="black" stroke-width="0.930137" stroke-miterlimit="10"/>
<path d="M58.5654 130.297C57.3558 125.294 56.7121 119.248 57.3003 115.432" stroke="black" stroke-width="0.930137" stroke-miterlimit="10"/>
<path d="M51.2964 132.461C51.2964 132.461 50.5084 128.767 50.2754 126.67C49.5319 120.014 50.1866 113.524 53.638 108.432" stroke="black" stroke-width="0.930137" stroke-miterlimit="10"/>
<path d="M39.3496 110.308C40.3497 109.857 40.7214 108.518 40.1798 107.317C39.6381 106.116 38.3883 105.508 37.3882 105.959C36.388 106.41 36.0163 107.749 36.558 108.95C37.0996 110.151 38.3495 110.759 39.3496 110.308Z" fill="white"/>
<path d="M35.0002 95.5C31.5002 97.3333 25.1002 103.3 27.5002 112.5" stroke="black" stroke-width="1.5"/>
<path d="M31 88C25.7667 90.6961 16.1973 99.4706 19.7858 113" stroke="black" stroke-width="1.5"/>
<path d="M270 65C270 72.7 263.7 79 256 79C248.3 79 242 72.7 242 65C242 57.3 248.3 51 256 51C264.05 51 270 57.3 270 65Z" fill="#1A73E8"/>
<path d="M274.5 73C274.5 78.7739 269.774 83.5 264 83.5C258.226 83.5 253.5 78.7739 253.5 73C253.5 67.2261 258.226 62.5 264 62.5C270.041 62.5 274.5 67.2179 274.5 73Z" stroke="black"/>
<path d="M195.266 67.5089C195.153 64.2313 197.359 60.975 200.358 59.7807C201.952 59.1892 203.714 58.9877 205.029 57.9615C209.13 54.8158 205.258 46.8686 209.259 43.4888C212.057 41.1798 216.796 42.7497 219.415 40.2401C221.633 38.0875 220.895 34.4311 220.504 31.3654C219.62 23.0602 223.931 14.3736 231.109 10.0002" stroke="#EF9748" stroke-width="1.5" stroke-miterlimit="10"/>
<path d="M64.885 177.732C63.011 177.668 61.149 178.929 60.4658 180.643C60.1274 181.554 60.012 182.561 59.4251 183.313C57.6261 185.658 53.0827 183.443 51.1498 185.731C49.8293 187.33 50.7264 190.039 49.2912 191.537C48.0602 192.804 45.9697 192.382 44.2169 192.158C39.4685 191.652 34.5013 194.116 32 198.219" stroke="black" stroke-width="1.5" stroke-miterlimit="10"/>
<path d="M284.531 157.549L299.097 139.135L269.075 136.185L284.531 157.549Z" fill="black"/>
<path d="M25.991 171.623L15.4053 177.895L15.7539 168.325L25.991 171.623Z" stroke="black"/>
<path d="M84 66H77V82H84V66Z" fill="#1A73E8"/>
<path d="M80.5 57L89.5933 70.5H71.4067L80.5 57Z" fill="#1A73E8"/>
<path d="M64.5 93C73.0604 93 80 86.0604 80 77.5C80 68.9396 73.0604 62 64.5 62C55.9396 62 49 68.9396 49 77.5C49 86.0604 55.9396 93 64.5 93Z" fill="#EF9748"/>
<path d="M71.8424 75.9154H66.7831L66.2392 76.7995V78.9198H71.8424V78.9273V81.5002V81.9303H66.2392V86.4737H62.76V81.9303H57.1582V81.5002V78.9273V78.9198H62.76V76.8025L62.2161 75.9154H57.1582V73.344H60.6361L57.6791 68.5264H60.6275L64.4988 74.8335L68.3718 68.5264H71.32L68.366 73.344H71.8424V75.9154Z" fill="white"/>
<path d="M19 78C29.4934 78 38 69.4934 38 59C38 48.5066 29.4934 40 19 40C8.50659 40 0 48.5066 0 59C0 69.4934 8.50659 78 19 78Z" fill="#EF9748"/>
<path d="M25.4437 52.4003L24.8773 52.1648C23.9443 51.7722 22.974 51.5752 21.9948 51.5752C19.1599 51.5752 16.556 53.2092 15.3056 55.7113H24.761L24.1783 58.5185H14.5381C14.5262 58.677 14.5187 58.84 14.5187 59.0029C14.5187 59.4029 14.5545 59.8117 14.6231 60.2221H23.8281L23.2468 63.0279H15.7245C17.0958 65.1492 19.4298 66.4336 21.9948 66.4336C22.8637 66.4336 23.7357 66.2736 24.5852 65.9596L25.2619 65.7092V69.6572L24.8908 69.7564C23.9384 70.0113 22.965 70.1401 21.9948 70.1401C17.3804 70.1401 13.2295 67.2973 11.5587 63.0279H9.17246V60.2221H10.8656C10.815 59.7925 10.7881 59.391 10.7881 59.0029C10.7881 58.8414 10.7925 58.6769 10.8 58.5185H9.17236V55.7113H11.3022C12.7479 51.073 17.0912 47.8643 21.9948 47.8643C23.2974 47.8643 24.5763 48.0924 25.7999 48.5368L26.2068 48.685L25.4437 52.4003Z" fill="white"/>
<path d="M55.0119 35V24C54.0622 24 53.1399 24.1203 52.259 24.3472C51.2507 24.605 50.294 25.0037 49.4199 25.5228C47.8163 26.4681 46.4742 27.8087 45.5245 29.4106C44.554 31.0469 44 32.958 44 35C44 38.0352 45.2353 40.7852 47.2278 42.7755C47.3689 42.9166 47.5135 43.054 47.6615 43.1881C47.8783 43.3806 48.1054 43.5662 48.336 43.745C48.4048 43.7966 48.477 43.8515 48.5493 43.9031C49.0104 44.2365 49.4956 44.5356 50.0084 44.7969C50.1702 44.8794 50.3388 44.9584 50.5074 45.0341C51.0683 45.285 51.6533 45.4913 52.259 45.6494C53.1399 45.8796 54.0622 46 55.0119 46C55.9652 46 56.8874 45.8796 57.7649 45.6528C58.7767 45.3916 59.7334 44.9928 60.6073 44.4737C60.8001 44.3603 60.9894 44.2434 61.1718 44.1197C61.6088 43.824 62.0252 43.4975 62.4175 43.14C62.5483 43.0231 62.6756 42.8993 62.7995 42.7755L57.7649 37.75L55.0119 35Z" fill="#1A73E8"/>
<path d="M61.7324 37.8219L64.4992 40.5857C65.3526 39.1488 65.8826 37.5022 65.9996 35.7422L61.7324 37.8219Z" fill="#1A73E8"/>
<path d="M63.0126 27.4443L57.7646 30.0053V32.5868L64.4477 29.3246C64.0417 28.6475 63.5599 28.0184 63.0126 27.4443Z" fill="#1A73E8"/>
<path d="M57.7646 24.3467V27.7085L61.3092 25.9795C60.2493 25.2369 59.0517 24.6801 57.7646 24.3467Z" fill="#1A73E8"/>
<path d="M60.191 36.2824L65.9207 33.4843C65.8106 32.6868 65.6144 31.9168 65.3425 31.1846L58.4531 34.5464L60.191 36.2824Z" fill="#1A73E8"/>
</g>
<defs>
<clipPath id="clip0_832_734">
<rect width="300" height="214" fill="white"/>
</clipPath>
</defs>
</svg>
