<svg width="81" height="79" viewBox="0 0 81 79" fill="none" xmlns="http://www.w3.org/2000/svg">
<circle cx="68" cy="66" r="13" fill="#EF9748"/>
<path d="M18.502 1C14.8147 6.22829 12.1414 13.2316 11.3994 20.0614C10.4415 28.934 15.385 40.7535 26.0867 37.9428C31.0786 36.6824 37.2823 32.5883 35.8261 26.1771C35.7813 25.7262 35.5472 25.2032 35.2409 24.8694C34.5058 24.0682 33.3481 24.1468 32.4355 24.4923C28.39 26.114 26.7062 30.9795 26.5697 35.655C26.4763 37.8313 26.6334 40.1467 27.5697 42.239C28.5672 44.3981 30.405 46.4009 32.5594 47.0065C35.9162 47.9844 39.4716 45.8285 41.4853 43.7347" stroke="#1A73E8" stroke-width="1.5" stroke-miterlimit="10"/>
</svg>
